M48
;GenerationSoftware,Autodesk,EAGLE,9.6.2*%
;CreationDate,2021-12-14T16:09:43Z*%
FMAT,2
ICI,OFF
METRIC,TZ,000.000
T9C0.305
T8C0.600
T7C0.800
T6C0.889
T5C1.000
T4C1.400
T3C2.500
T2C3.175
T1C3.200
%
G90
M71
T1
X38290Y88050
X38290Y29050
X123790Y88050
X123790Y29050
T2
X3810Y3810
X3810Y123190
X148590Y123190
X148590Y3810
T3
X21670Y15890
X31670Y15890
T4
X31650Y100925
X31650Y95925
X19150Y95925
X19150Y100925
T5
X29170Y8890
X24170Y8890
X26670Y8890
T6
X70290Y70840
X67750Y68300
X67750Y70840
X65210Y68300
X65210Y70840
X62670Y68300
X62670Y70840
X60130Y68300
X93150Y42900
X103310Y42900
X103310Y45440
X100770Y42900
X100770Y45440
X98230Y42900
X98230Y45440
X95690Y42900
X95690Y45440
X60130Y70840
X93150Y45440
X90610Y42900
X90610Y45440
X88070Y42900
X88070Y45440
X85530Y42900
X85530Y45440
X82990Y42900
X82990Y45440
X80450Y42900
X80450Y45440
X77910Y42900
X77910Y45440
X75370Y42900
X75370Y45440
X72830Y42900
X72830Y45440
X70290Y42900
X70290Y45440
X67750Y42900
X67750Y45440
X65210Y42900
X65210Y45440
X62670Y42900
X62670Y45440
X60130Y42900
X60130Y45440
X103310Y68300
X103310Y70840
X100770Y68300
X100770Y70840
X98230Y68300
X98230Y70840
X95690Y68300
X95690Y70840
X93150Y68300
X93150Y70840
X90610Y68300
X90610Y70840
X88070Y68300
X88070Y70840
X85530Y68300
X85530Y70840
X82990Y68300
X82990Y70840
X80450Y68300
X80450Y70840
X77910Y68300
X77910Y70840
X75370Y68300
X75370Y70840
X72830Y68300
X72830Y70840
X70290Y68300
T7
X129540Y75640
X36830Y67310
X36830Y69850
X36830Y72390
X36830Y74930
X36830Y77470
X34290Y74930
X129540Y69140
X36830Y80010
X34290Y82550
X34290Y80010
X34290Y77470
X36830Y82550
X34290Y72390
X34290Y69850
X34290Y67310
X34290Y64770
X34290Y62230
X34290Y59690
X34290Y57150
X34290Y54610
X34290Y52070
X34290Y49530
X34290Y46990
X34290Y44450
X34290Y41910
X34290Y39370
X34290Y36830
X34290Y34290
X36830Y34290
X36830Y36830
X36830Y39370
X36830Y41910
X36830Y44450
X36830Y46990
X36830Y49530
X36830Y52070
X36830Y54610
X36830Y57150
X36830Y59690
X36830Y62230
X36830Y64770
T8
X116840Y24130
X121920Y24130
X116840Y19050
X121920Y19050
T9
X127635Y98425
X127635Y109220
X5080Y113030
X33655Y93345
X122555Y105410
X132080Y12700
X124460Y15240
M30