G04 EAGLE Gerber RS-274X export*
G75*
%MOMM*%
%FSLAX34Y34*%
%LPD*%
%INCopper Layer 2*%
%IPPOS*%
%AMOC8*
5,1,8,0,0,1.08239X$1,22.5*%
G01*
%ADD10C,1.120000*%
%ADD11C,1.400000*%
%ADD12C,1.960000*%
%ADD13C,4.191000*%
%ADD14C,1.244600*%
%ADD15C,0.904800*%
%ADD16C,0.609600*%

G36*
X1520718Y2544D02*
X1520718Y2544D01*
X1520737Y2542D01*
X1520839Y2564D01*
X1520941Y2580D01*
X1520958Y2590D01*
X1520978Y2594D01*
X1521067Y2647D01*
X1521158Y2696D01*
X1521172Y2710D01*
X1521189Y2720D01*
X1521256Y2799D01*
X1521328Y2874D01*
X1521336Y2892D01*
X1521349Y2907D01*
X1521388Y3003D01*
X1521431Y3097D01*
X1521433Y3117D01*
X1521441Y3135D01*
X1521459Y3302D01*
X1521459Y1266698D01*
X1521456Y1266718D01*
X1521458Y1266737D01*
X1521436Y1266839D01*
X1521420Y1266941D01*
X1521410Y1266958D01*
X1521406Y1266978D01*
X1521353Y1267067D01*
X1521304Y1267158D01*
X1521290Y1267172D01*
X1521280Y1267189D01*
X1521201Y1267256D01*
X1521126Y1267328D01*
X1521108Y1267336D01*
X1521093Y1267349D01*
X1520997Y1267388D01*
X1520903Y1267431D01*
X1520883Y1267433D01*
X1520865Y1267441D01*
X1520698Y1267459D01*
X3302Y1267459D01*
X3282Y1267456D01*
X3263Y1267458D01*
X3161Y1267436D01*
X3059Y1267420D01*
X3042Y1267410D01*
X3022Y1267406D01*
X2933Y1267353D01*
X2842Y1267304D01*
X2828Y1267290D01*
X2811Y1267280D01*
X2744Y1267201D01*
X2672Y1267126D01*
X2664Y1267108D01*
X2651Y1267093D01*
X2612Y1266997D01*
X2569Y1266903D01*
X2567Y1266883D01*
X2559Y1266865D01*
X2541Y1266698D01*
X2541Y3302D01*
X2544Y3282D01*
X2542Y3263D01*
X2564Y3161D01*
X2580Y3059D01*
X2590Y3042D01*
X2594Y3022D01*
X2647Y2933D01*
X2696Y2842D01*
X2710Y2828D01*
X2720Y2811D01*
X2799Y2744D01*
X2874Y2672D01*
X2892Y2664D01*
X2907Y2651D01*
X3003Y2612D01*
X3097Y2569D01*
X3117Y2567D01*
X3135Y2559D01*
X3302Y2541D01*
X1520698Y2541D01*
X1520718Y2544D01*
G37*
%LPC*%
G36*
X1481226Y1208404D02*
X1481226Y1208404D01*
X1472591Y1211981D01*
X1465981Y1218591D01*
X1462404Y1227226D01*
X1462404Y1236574D01*
X1465981Y1245209D01*
X1472591Y1251819D01*
X1481226Y1255396D01*
X1490574Y1255396D01*
X1499209Y1251819D01*
X1505819Y1245209D01*
X1509396Y1236574D01*
X1509396Y1227226D01*
X1505819Y1218591D01*
X1499209Y1211981D01*
X1490574Y1208404D01*
X1481226Y1208404D01*
G37*
%LPD*%
%LPC*%
G36*
X33426Y1208404D02*
X33426Y1208404D01*
X24791Y1211981D01*
X18181Y1218591D01*
X14604Y1227226D01*
X14604Y1236574D01*
X18181Y1245209D01*
X24791Y1251819D01*
X33426Y1255396D01*
X42774Y1255396D01*
X51409Y1251819D01*
X58019Y1245209D01*
X61596Y1236574D01*
X61596Y1227226D01*
X58019Y1218591D01*
X51409Y1211981D01*
X42774Y1208404D01*
X33426Y1208404D01*
G37*
%LPD*%
%LPC*%
G36*
X33426Y14604D02*
X33426Y14604D01*
X24791Y18181D01*
X18181Y24791D01*
X14604Y33426D01*
X14604Y42774D01*
X18181Y51409D01*
X24791Y58019D01*
X33426Y61596D01*
X42774Y61596D01*
X51409Y58019D01*
X58019Y51409D01*
X61596Y42774D01*
X61596Y33426D01*
X58019Y24791D01*
X51409Y18181D01*
X42774Y14604D01*
X33426Y14604D01*
G37*
%LPD*%
%LPC*%
G36*
X1481226Y14604D02*
X1481226Y14604D01*
X1472591Y18181D01*
X1465981Y24791D01*
X1462404Y33426D01*
X1462404Y42774D01*
X1465981Y51409D01*
X1472591Y58019D01*
X1481226Y61596D01*
X1490574Y61596D01*
X1499209Y58019D01*
X1505819Y51409D01*
X1509396Y42774D01*
X1509396Y33426D01*
X1505819Y24791D01*
X1499209Y18181D01*
X1490574Y14604D01*
X1481226Y14604D01*
G37*
%LPD*%
%LPC*%
G36*
X1234212Y861959D02*
X1234212Y861959D01*
X1227397Y864782D01*
X1222182Y869997D01*
X1219359Y876812D01*
X1219359Y884188D01*
X1222182Y891003D01*
X1227397Y896218D01*
X1234212Y899041D01*
X1241588Y899041D01*
X1248403Y896218D01*
X1253618Y891003D01*
X1256441Y884188D01*
X1256441Y876812D01*
X1253618Y869997D01*
X1248403Y864782D01*
X1241588Y861959D01*
X1234212Y861959D01*
G37*
%LPD*%
%LPC*%
G36*
X379212Y861959D02*
X379212Y861959D01*
X372397Y864782D01*
X367182Y869997D01*
X364359Y876812D01*
X364359Y884188D01*
X367182Y891003D01*
X372397Y896218D01*
X379212Y899041D01*
X386588Y899041D01*
X393403Y896218D01*
X398618Y891003D01*
X401441Y884188D01*
X401441Y876812D01*
X398618Y869997D01*
X393403Y864782D01*
X386588Y861959D01*
X379212Y861959D01*
G37*
%LPD*%
%LPC*%
G36*
X379212Y271959D02*
X379212Y271959D01*
X372397Y274782D01*
X367182Y279997D01*
X364359Y286812D01*
X364359Y294188D01*
X367182Y301003D01*
X372397Y306218D01*
X379212Y309041D01*
X386588Y309041D01*
X393403Y306218D01*
X398618Y301003D01*
X401441Y294188D01*
X401441Y286812D01*
X398618Y279997D01*
X393403Y274782D01*
X386588Y271959D01*
X379212Y271959D01*
G37*
%LPD*%
%LPC*%
G36*
X1234212Y271959D02*
X1234212Y271959D01*
X1227397Y274782D01*
X1222182Y279997D01*
X1219359Y286812D01*
X1219359Y294188D01*
X1222182Y301003D01*
X1227397Y306218D01*
X1234212Y309041D01*
X1241588Y309041D01*
X1248403Y306218D01*
X1253618Y301003D01*
X1256441Y294188D01*
X1256441Y286812D01*
X1253618Y279997D01*
X1248403Y274782D01*
X1241588Y271959D01*
X1234212Y271959D01*
G37*
%LPD*%
%LPC*%
G36*
X213708Y143859D02*
X213708Y143859D01*
X208180Y146149D01*
X203949Y150380D01*
X201659Y155908D01*
X201659Y161892D01*
X203949Y167420D01*
X208180Y171651D01*
X213708Y173941D01*
X219692Y173941D01*
X225220Y171651D01*
X229451Y167420D01*
X231741Y161892D01*
X231741Y155908D01*
X229451Y150380D01*
X225220Y146149D01*
X219692Y143859D01*
X213708Y143859D01*
G37*
%LPD*%
%LPC*%
G36*
X313708Y143859D02*
X313708Y143859D01*
X308180Y146149D01*
X303949Y150380D01*
X301659Y155908D01*
X301659Y161892D01*
X303949Y167420D01*
X308180Y171651D01*
X313708Y173941D01*
X319692Y173941D01*
X325220Y171651D01*
X329451Y167420D01*
X331741Y161892D01*
X331741Y155908D01*
X329451Y150380D01*
X325220Y146149D01*
X319692Y143859D01*
X313708Y143859D01*
G37*
%LPD*%
%LPC*%
G36*
X314045Y996909D02*
X314045Y996909D01*
X309510Y998788D01*
X306038Y1002260D01*
X304159Y1006795D01*
X304159Y1011705D01*
X306038Y1016240D01*
X309510Y1019712D01*
X314045Y1021591D01*
X318955Y1021591D01*
X323490Y1019712D01*
X326962Y1016240D01*
X328841Y1011705D01*
X328841Y1006795D01*
X326962Y1002260D01*
X323490Y998788D01*
X318955Y996909D01*
X314045Y996909D01*
G37*
%LPD*%
%LPC*%
G36*
X189045Y996909D02*
X189045Y996909D01*
X184510Y998788D01*
X181038Y1002260D01*
X179159Y1006795D01*
X179159Y1011705D01*
X181038Y1016240D01*
X184510Y1019712D01*
X189045Y1021591D01*
X193955Y1021591D01*
X198490Y1019712D01*
X201962Y1016240D01*
X203841Y1011705D01*
X203841Y1006795D01*
X201962Y1002260D01*
X198490Y998788D01*
X193955Y996909D01*
X189045Y996909D01*
G37*
%LPD*%
%LPC*%
G36*
X264802Y79359D02*
X264802Y79359D01*
X261296Y80812D01*
X258612Y83496D01*
X257159Y87002D01*
X257159Y90798D01*
X258612Y94304D01*
X261296Y96988D01*
X264802Y98441D01*
X268598Y98441D01*
X272104Y96988D01*
X274788Y94304D01*
X276241Y90798D01*
X276241Y87002D01*
X274788Y83496D01*
X272104Y80812D01*
X268598Y79359D01*
X264802Y79359D01*
G37*
%LPD*%
%LPC*%
G36*
X289802Y79359D02*
X289802Y79359D01*
X286296Y80812D01*
X283612Y83496D01*
X282159Y87002D01*
X282159Y90798D01*
X283612Y94304D01*
X286296Y96988D01*
X289802Y98441D01*
X293598Y98441D01*
X297104Y96988D01*
X299788Y94304D01*
X301241Y90798D01*
X301241Y87002D01*
X299788Y83496D01*
X297104Y80812D01*
X293598Y79359D01*
X289802Y79359D01*
G37*
%LPD*%
%LPC*%
G36*
X239802Y79359D02*
X239802Y79359D01*
X236296Y80812D01*
X233612Y83496D01*
X232159Y87002D01*
X232159Y90798D01*
X233612Y94304D01*
X236296Y96988D01*
X239802Y98441D01*
X243598Y98441D01*
X247104Y96988D01*
X249788Y94304D01*
X251241Y90798D01*
X251241Y87002D01*
X249788Y83496D01*
X247104Y80812D01*
X243598Y79359D01*
X239802Y79359D01*
G37*
%LPD*%
%LPC*%
G36*
X726557Y420236D02*
X726557Y420236D01*
X723336Y421570D01*
X720870Y424036D01*
X719536Y427257D01*
X719536Y430743D01*
X720870Y433964D01*
X723336Y436430D01*
X726557Y437764D01*
X730043Y437764D01*
X733264Y436430D01*
X735730Y433964D01*
X737064Y430743D01*
X737064Y427257D01*
X735730Y424036D01*
X733264Y421570D01*
X730043Y420236D01*
X726557Y420236D01*
G37*
%LPD*%
%LPC*%
G36*
X701157Y420236D02*
X701157Y420236D01*
X697936Y421570D01*
X695470Y424036D01*
X694136Y427257D01*
X694136Y430743D01*
X695470Y433964D01*
X697936Y436430D01*
X701157Y437764D01*
X704643Y437764D01*
X707864Y436430D01*
X710330Y433964D01*
X711664Y430743D01*
X711664Y427257D01*
X710330Y424036D01*
X707864Y421570D01*
X704643Y420236D01*
X701157Y420236D01*
G37*
%LPD*%
%LPC*%
G36*
X675757Y420236D02*
X675757Y420236D01*
X672536Y421570D01*
X670070Y424036D01*
X668736Y427257D01*
X668736Y430743D01*
X670070Y433964D01*
X672536Y436430D01*
X675757Y437764D01*
X679243Y437764D01*
X682464Y436430D01*
X684930Y433964D01*
X686264Y430743D01*
X686264Y427257D01*
X684930Y424036D01*
X682464Y421570D01*
X679243Y420236D01*
X675757Y420236D01*
G37*
%LPD*%
%LPC*%
G36*
X650357Y420236D02*
X650357Y420236D01*
X647136Y421570D01*
X644670Y424036D01*
X643336Y427257D01*
X643336Y430743D01*
X644670Y433964D01*
X647136Y436430D01*
X650357Y437764D01*
X653843Y437764D01*
X657064Y436430D01*
X659530Y433964D01*
X660864Y430743D01*
X660864Y427257D01*
X659530Y424036D01*
X657064Y421570D01*
X653843Y420236D01*
X650357Y420236D01*
G37*
%LPD*%
%LPC*%
G36*
X955157Y420236D02*
X955157Y420236D01*
X951936Y421570D01*
X949470Y424036D01*
X948136Y427257D01*
X948136Y430743D01*
X949470Y433964D01*
X951936Y436430D01*
X955157Y437764D01*
X958643Y437764D01*
X961864Y436430D01*
X964330Y433964D01*
X965664Y430743D01*
X965664Y427257D01*
X964330Y424036D01*
X961864Y421570D01*
X958643Y420236D01*
X955157Y420236D01*
G37*
%LPD*%
%LPC*%
G36*
X751957Y445636D02*
X751957Y445636D01*
X748736Y446970D01*
X746270Y449436D01*
X744936Y452657D01*
X744936Y456143D01*
X746270Y459364D01*
X748736Y461830D01*
X751957Y463164D01*
X755443Y463164D01*
X758664Y461830D01*
X761130Y459364D01*
X762464Y456143D01*
X762464Y452657D01*
X761130Y449436D01*
X758664Y446970D01*
X755443Y445636D01*
X751957Y445636D01*
G37*
%LPD*%
%LPC*%
G36*
X1031357Y445636D02*
X1031357Y445636D01*
X1028136Y446970D01*
X1025670Y449436D01*
X1024336Y452657D01*
X1024336Y456143D01*
X1025670Y459364D01*
X1028136Y461830D01*
X1031357Y463164D01*
X1034843Y463164D01*
X1038064Y461830D01*
X1040530Y459364D01*
X1041864Y456143D01*
X1041864Y452657D01*
X1040530Y449436D01*
X1038064Y446970D01*
X1034843Y445636D01*
X1031357Y445636D01*
G37*
%LPD*%
%LPC*%
G36*
X726557Y445636D02*
X726557Y445636D01*
X723336Y446970D01*
X720870Y449436D01*
X719536Y452657D01*
X719536Y456143D01*
X720870Y459364D01*
X723336Y461830D01*
X726557Y463164D01*
X730043Y463164D01*
X733264Y461830D01*
X735730Y459364D01*
X737064Y456143D01*
X737064Y452657D01*
X735730Y449436D01*
X733264Y446970D01*
X730043Y445636D01*
X726557Y445636D01*
G37*
%LPD*%
%LPC*%
G36*
X701157Y445636D02*
X701157Y445636D01*
X697936Y446970D01*
X695470Y449436D01*
X694136Y452657D01*
X694136Y456143D01*
X695470Y459364D01*
X697936Y461830D01*
X701157Y463164D01*
X704643Y463164D01*
X707864Y461830D01*
X710330Y459364D01*
X711664Y456143D01*
X711664Y452657D01*
X710330Y449436D01*
X707864Y446970D01*
X704643Y445636D01*
X701157Y445636D01*
G37*
%LPD*%
%LPC*%
G36*
X1005957Y445636D02*
X1005957Y445636D01*
X1002736Y446970D01*
X1000270Y449436D01*
X998936Y452657D01*
X998936Y456143D01*
X1000270Y459364D01*
X1002736Y461830D01*
X1005957Y463164D01*
X1009443Y463164D01*
X1012664Y461830D01*
X1015130Y459364D01*
X1016464Y456143D01*
X1016464Y452657D01*
X1015130Y449436D01*
X1012664Y446970D01*
X1009443Y445636D01*
X1005957Y445636D01*
G37*
%LPD*%
%LPC*%
G36*
X980557Y445636D02*
X980557Y445636D01*
X977336Y446970D01*
X974870Y449436D01*
X973536Y452657D01*
X973536Y456143D01*
X974870Y459364D01*
X977336Y461830D01*
X980557Y463164D01*
X984043Y463164D01*
X987264Y461830D01*
X989730Y459364D01*
X991064Y456143D01*
X991064Y452657D01*
X989730Y449436D01*
X987264Y446970D01*
X984043Y445636D01*
X980557Y445636D01*
G37*
%LPD*%
%LPC*%
G36*
X955157Y445636D02*
X955157Y445636D01*
X951936Y446970D01*
X949470Y449436D01*
X948136Y452657D01*
X948136Y456143D01*
X949470Y459364D01*
X951936Y461830D01*
X955157Y463164D01*
X958643Y463164D01*
X961864Y461830D01*
X964330Y459364D01*
X965664Y456143D01*
X965664Y452657D01*
X964330Y449436D01*
X961864Y446970D01*
X958643Y445636D01*
X955157Y445636D01*
G37*
%LPD*%
%LPC*%
G36*
X929757Y445636D02*
X929757Y445636D01*
X926536Y446970D01*
X924070Y449436D01*
X922736Y452657D01*
X922736Y456143D01*
X924070Y459364D01*
X926536Y461830D01*
X929757Y463164D01*
X933243Y463164D01*
X936464Y461830D01*
X938930Y459364D01*
X940264Y456143D01*
X940264Y452657D01*
X938930Y449436D01*
X936464Y446970D01*
X933243Y445636D01*
X929757Y445636D01*
G37*
%LPD*%
%LPC*%
G36*
X904357Y445636D02*
X904357Y445636D01*
X901136Y446970D01*
X898670Y449436D01*
X897336Y452657D01*
X897336Y456143D01*
X898670Y459364D01*
X901136Y461830D01*
X904357Y463164D01*
X907843Y463164D01*
X911064Y461830D01*
X913530Y459364D01*
X914864Y456143D01*
X914864Y452657D01*
X913530Y449436D01*
X911064Y446970D01*
X907843Y445636D01*
X904357Y445636D01*
G37*
%LPD*%
%LPC*%
G36*
X878957Y445636D02*
X878957Y445636D01*
X875736Y446970D01*
X873270Y449436D01*
X871936Y452657D01*
X871936Y456143D01*
X873270Y459364D01*
X875736Y461830D01*
X878957Y463164D01*
X882443Y463164D01*
X885664Y461830D01*
X888130Y459364D01*
X889464Y456143D01*
X889464Y452657D01*
X888130Y449436D01*
X885664Y446970D01*
X882443Y445636D01*
X878957Y445636D01*
G37*
%LPD*%
%LPC*%
G36*
X777357Y699636D02*
X777357Y699636D01*
X774136Y700970D01*
X771670Y703436D01*
X770336Y706657D01*
X770336Y710143D01*
X771670Y713364D01*
X774136Y715830D01*
X777357Y717164D01*
X780843Y717164D01*
X784064Y715830D01*
X786530Y713364D01*
X787864Y710143D01*
X787864Y706657D01*
X786530Y703436D01*
X784064Y700970D01*
X780843Y699636D01*
X777357Y699636D01*
G37*
%LPD*%
%LPC*%
G36*
X828157Y445636D02*
X828157Y445636D01*
X824936Y446970D01*
X822470Y449436D01*
X821136Y452657D01*
X821136Y456143D01*
X822470Y459364D01*
X824936Y461830D01*
X828157Y463164D01*
X831643Y463164D01*
X834864Y461830D01*
X837330Y459364D01*
X838664Y456143D01*
X838664Y452657D01*
X837330Y449436D01*
X834864Y446970D01*
X831643Y445636D01*
X828157Y445636D01*
G37*
%LPD*%
%LPC*%
G36*
X802757Y445636D02*
X802757Y445636D01*
X799536Y446970D01*
X797070Y449436D01*
X795736Y452657D01*
X795736Y456143D01*
X797070Y459364D01*
X799536Y461830D01*
X802757Y463164D01*
X806243Y463164D01*
X809464Y461830D01*
X811930Y459364D01*
X813264Y456143D01*
X813264Y452657D01*
X811930Y449436D01*
X809464Y446970D01*
X806243Y445636D01*
X802757Y445636D01*
G37*
%LPD*%
%LPC*%
G36*
X675757Y445636D02*
X675757Y445636D01*
X672536Y446970D01*
X670070Y449436D01*
X668736Y452657D01*
X668736Y456143D01*
X670070Y459364D01*
X672536Y461830D01*
X675757Y463164D01*
X679243Y463164D01*
X682464Y461830D01*
X684930Y459364D01*
X686264Y456143D01*
X686264Y452657D01*
X684930Y449436D01*
X682464Y446970D01*
X679243Y445636D01*
X675757Y445636D01*
G37*
%LPD*%
%LPC*%
G36*
X650357Y445636D02*
X650357Y445636D01*
X647136Y446970D01*
X644670Y449436D01*
X643336Y452657D01*
X643336Y456143D01*
X644670Y459364D01*
X647136Y461830D01*
X650357Y463164D01*
X653843Y463164D01*
X657064Y461830D01*
X659530Y459364D01*
X660864Y456143D01*
X660864Y452657D01*
X659530Y449436D01*
X657064Y446970D01*
X653843Y445636D01*
X650357Y445636D01*
G37*
%LPD*%
%LPC*%
G36*
X624957Y445636D02*
X624957Y445636D01*
X621736Y446970D01*
X619270Y449436D01*
X617936Y452657D01*
X617936Y456143D01*
X619270Y459364D01*
X621736Y461830D01*
X624957Y463164D01*
X628443Y463164D01*
X631664Y461830D01*
X634130Y459364D01*
X635464Y456143D01*
X635464Y452657D01*
X634130Y449436D01*
X631664Y446970D01*
X628443Y445636D01*
X624957Y445636D01*
G37*
%LPD*%
%LPC*%
G36*
X599557Y445636D02*
X599557Y445636D01*
X596336Y446970D01*
X593870Y449436D01*
X592536Y452657D01*
X592536Y456143D01*
X593870Y459364D01*
X596336Y461830D01*
X599557Y463164D01*
X603043Y463164D01*
X606264Y461830D01*
X608730Y459364D01*
X610064Y456143D01*
X610064Y452657D01*
X608730Y449436D01*
X606264Y446970D01*
X603043Y445636D01*
X599557Y445636D01*
G37*
%LPD*%
%LPC*%
G36*
X624957Y420236D02*
X624957Y420236D01*
X621736Y421570D01*
X619270Y424036D01*
X617936Y427257D01*
X617936Y430743D01*
X619270Y433964D01*
X621736Y436430D01*
X624957Y437764D01*
X628443Y437764D01*
X631664Y436430D01*
X634130Y433964D01*
X635464Y430743D01*
X635464Y427257D01*
X634130Y424036D01*
X631664Y421570D01*
X628443Y420236D01*
X624957Y420236D01*
G37*
%LPD*%
%LPC*%
G36*
X599557Y420236D02*
X599557Y420236D01*
X596336Y421570D01*
X593870Y424036D01*
X592536Y427257D01*
X592536Y430743D01*
X593870Y433964D01*
X596336Y436430D01*
X599557Y437764D01*
X603043Y437764D01*
X606264Y436430D01*
X608730Y433964D01*
X610064Y430743D01*
X610064Y427257D01*
X608730Y424036D01*
X606264Y421570D01*
X603043Y420236D01*
X599557Y420236D01*
G37*
%LPD*%
%LPC*%
G36*
X1031357Y420236D02*
X1031357Y420236D01*
X1028136Y421570D01*
X1025670Y424036D01*
X1024336Y427257D01*
X1024336Y430743D01*
X1025670Y433964D01*
X1028136Y436430D01*
X1031357Y437764D01*
X1034843Y437764D01*
X1038064Y436430D01*
X1040530Y433964D01*
X1041864Y430743D01*
X1041864Y427257D01*
X1040530Y424036D01*
X1038064Y421570D01*
X1034843Y420236D01*
X1031357Y420236D01*
G37*
%LPD*%
%LPC*%
G36*
X1005957Y420236D02*
X1005957Y420236D01*
X1002736Y421570D01*
X1000270Y424036D01*
X998936Y427257D01*
X998936Y430743D01*
X1000270Y433964D01*
X1002736Y436430D01*
X1005957Y437764D01*
X1009443Y437764D01*
X1012664Y436430D01*
X1015130Y433964D01*
X1016464Y430743D01*
X1016464Y427257D01*
X1015130Y424036D01*
X1012664Y421570D01*
X1009443Y420236D01*
X1005957Y420236D01*
G37*
%LPD*%
%LPC*%
G36*
X980557Y420236D02*
X980557Y420236D01*
X977336Y421570D01*
X974870Y424036D01*
X973536Y427257D01*
X973536Y430743D01*
X974870Y433964D01*
X977336Y436430D01*
X980557Y437764D01*
X984043Y437764D01*
X987264Y436430D01*
X989730Y433964D01*
X991064Y430743D01*
X991064Y427257D01*
X989730Y424036D01*
X987264Y421570D01*
X984043Y420236D01*
X980557Y420236D01*
G37*
%LPD*%
%LPC*%
G36*
X853557Y699636D02*
X853557Y699636D01*
X850336Y700970D01*
X847870Y703436D01*
X846536Y706657D01*
X846536Y710143D01*
X847870Y713364D01*
X850336Y715830D01*
X853557Y717164D01*
X857043Y717164D01*
X860264Y715830D01*
X862730Y713364D01*
X864064Y710143D01*
X864064Y706657D01*
X862730Y703436D01*
X860264Y700970D01*
X857043Y699636D01*
X853557Y699636D01*
G37*
%LPD*%
%LPC*%
G36*
X828157Y699636D02*
X828157Y699636D01*
X824936Y700970D01*
X822470Y703436D01*
X821136Y706657D01*
X821136Y710143D01*
X822470Y713364D01*
X824936Y715830D01*
X828157Y717164D01*
X831643Y717164D01*
X834864Y715830D01*
X837330Y713364D01*
X838664Y710143D01*
X838664Y706657D01*
X837330Y703436D01*
X834864Y700970D01*
X831643Y699636D01*
X828157Y699636D01*
G37*
%LPD*%
%LPC*%
G36*
X1031357Y699636D02*
X1031357Y699636D01*
X1028136Y700970D01*
X1025670Y703436D01*
X1024336Y706657D01*
X1024336Y710143D01*
X1025670Y713364D01*
X1028136Y715830D01*
X1031357Y717164D01*
X1034843Y717164D01*
X1038064Y715830D01*
X1040530Y713364D01*
X1041864Y710143D01*
X1041864Y706657D01*
X1040530Y703436D01*
X1038064Y700970D01*
X1034843Y699636D01*
X1031357Y699636D01*
G37*
%LPD*%
%LPC*%
G36*
X1005957Y699636D02*
X1005957Y699636D01*
X1002736Y700970D01*
X1000270Y703436D01*
X998936Y706657D01*
X998936Y710143D01*
X1000270Y713364D01*
X1002736Y715830D01*
X1005957Y717164D01*
X1009443Y717164D01*
X1012664Y715830D01*
X1015130Y713364D01*
X1016464Y710143D01*
X1016464Y706657D01*
X1015130Y703436D01*
X1012664Y700970D01*
X1009443Y699636D01*
X1005957Y699636D01*
G37*
%LPD*%
%LPC*%
G36*
X980557Y699636D02*
X980557Y699636D01*
X977336Y700970D01*
X974870Y703436D01*
X973536Y706657D01*
X973536Y710143D01*
X974870Y713364D01*
X977336Y715830D01*
X980557Y717164D01*
X984043Y717164D01*
X987264Y715830D01*
X989730Y713364D01*
X991064Y710143D01*
X991064Y706657D01*
X989730Y703436D01*
X987264Y700970D01*
X984043Y699636D01*
X980557Y699636D01*
G37*
%LPD*%
%LPC*%
G36*
X955157Y699636D02*
X955157Y699636D01*
X951936Y700970D01*
X949470Y703436D01*
X948136Y706657D01*
X948136Y710143D01*
X949470Y713364D01*
X951936Y715830D01*
X955157Y717164D01*
X958643Y717164D01*
X961864Y715830D01*
X964330Y713364D01*
X965664Y710143D01*
X965664Y706657D01*
X964330Y703436D01*
X961864Y700970D01*
X958643Y699636D01*
X955157Y699636D01*
G37*
%LPD*%
%LPC*%
G36*
X929757Y699636D02*
X929757Y699636D01*
X926536Y700970D01*
X924070Y703436D01*
X922736Y706657D01*
X922736Y710143D01*
X924070Y713364D01*
X926536Y715830D01*
X929757Y717164D01*
X933243Y717164D01*
X936464Y715830D01*
X938930Y713364D01*
X940264Y710143D01*
X940264Y706657D01*
X938930Y703436D01*
X936464Y700970D01*
X933243Y699636D01*
X929757Y699636D01*
G37*
%LPD*%
%LPC*%
G36*
X904357Y699636D02*
X904357Y699636D01*
X901136Y700970D01*
X898670Y703436D01*
X897336Y706657D01*
X897336Y710143D01*
X898670Y713364D01*
X901136Y715830D01*
X904357Y717164D01*
X907843Y717164D01*
X911064Y715830D01*
X913530Y713364D01*
X914864Y710143D01*
X914864Y706657D01*
X913530Y703436D01*
X911064Y700970D01*
X907843Y699636D01*
X904357Y699636D01*
G37*
%LPD*%
%LPC*%
G36*
X878957Y699636D02*
X878957Y699636D01*
X875736Y700970D01*
X873270Y703436D01*
X871936Y706657D01*
X871936Y710143D01*
X873270Y713364D01*
X875736Y715830D01*
X878957Y717164D01*
X882443Y717164D01*
X885664Y715830D01*
X888130Y713364D01*
X889464Y710143D01*
X889464Y706657D01*
X888130Y703436D01*
X885664Y700970D01*
X882443Y699636D01*
X878957Y699636D01*
G37*
%LPD*%
%LPC*%
G36*
X802757Y699636D02*
X802757Y699636D01*
X799536Y700970D01*
X797070Y703436D01*
X795736Y706657D01*
X795736Y710143D01*
X797070Y713364D01*
X799536Y715830D01*
X802757Y717164D01*
X806243Y717164D01*
X809464Y715830D01*
X811930Y713364D01*
X813264Y710143D01*
X813264Y706657D01*
X811930Y703436D01*
X809464Y700970D01*
X806243Y699636D01*
X802757Y699636D01*
G37*
%LPD*%
%LPC*%
G36*
X929757Y420236D02*
X929757Y420236D01*
X926536Y421570D01*
X924070Y424036D01*
X922736Y427257D01*
X922736Y430743D01*
X924070Y433964D01*
X926536Y436430D01*
X929757Y437764D01*
X933243Y437764D01*
X936464Y436430D01*
X938930Y433964D01*
X940264Y430743D01*
X940264Y427257D01*
X938930Y424036D01*
X936464Y421570D01*
X933243Y420236D01*
X929757Y420236D01*
G37*
%LPD*%
%LPC*%
G36*
X751957Y699636D02*
X751957Y699636D01*
X748736Y700970D01*
X746270Y703436D01*
X744936Y706657D01*
X744936Y710143D01*
X746270Y713364D01*
X748736Y715830D01*
X751957Y717164D01*
X755443Y717164D01*
X758664Y715830D01*
X761130Y713364D01*
X762464Y710143D01*
X762464Y706657D01*
X761130Y703436D01*
X758664Y700970D01*
X755443Y699636D01*
X751957Y699636D01*
G37*
%LPD*%
%LPC*%
G36*
X726557Y699636D02*
X726557Y699636D01*
X723336Y700970D01*
X720870Y703436D01*
X719536Y706657D01*
X719536Y710143D01*
X720870Y713364D01*
X723336Y715830D01*
X726557Y717164D01*
X730043Y717164D01*
X733264Y715830D01*
X735730Y713364D01*
X737064Y710143D01*
X737064Y706657D01*
X735730Y703436D01*
X733264Y700970D01*
X730043Y699636D01*
X726557Y699636D01*
G37*
%LPD*%
%LPC*%
G36*
X701157Y699636D02*
X701157Y699636D01*
X697936Y700970D01*
X695470Y703436D01*
X694136Y706657D01*
X694136Y710143D01*
X695470Y713364D01*
X697936Y715830D01*
X701157Y717164D01*
X704643Y717164D01*
X707864Y715830D01*
X710330Y713364D01*
X711664Y710143D01*
X711664Y706657D01*
X710330Y703436D01*
X707864Y700970D01*
X704643Y699636D01*
X701157Y699636D01*
G37*
%LPD*%
%LPC*%
G36*
X675757Y699636D02*
X675757Y699636D01*
X672536Y700970D01*
X670070Y703436D01*
X668736Y706657D01*
X668736Y710143D01*
X670070Y713364D01*
X672536Y715830D01*
X675757Y717164D01*
X679243Y717164D01*
X682464Y715830D01*
X684930Y713364D01*
X686264Y710143D01*
X686264Y706657D01*
X684930Y703436D01*
X682464Y700970D01*
X679243Y699636D01*
X675757Y699636D01*
G37*
%LPD*%
%LPC*%
G36*
X650357Y699636D02*
X650357Y699636D01*
X647136Y700970D01*
X644670Y703436D01*
X643336Y706657D01*
X643336Y710143D01*
X644670Y713364D01*
X647136Y715830D01*
X650357Y717164D01*
X653843Y717164D01*
X657064Y715830D01*
X659530Y713364D01*
X660864Y710143D01*
X660864Y706657D01*
X659530Y703436D01*
X657064Y700970D01*
X653843Y699636D01*
X650357Y699636D01*
G37*
%LPD*%
%LPC*%
G36*
X624957Y699636D02*
X624957Y699636D01*
X621736Y700970D01*
X619270Y703436D01*
X617936Y706657D01*
X617936Y710143D01*
X619270Y713364D01*
X621736Y715830D01*
X624957Y717164D01*
X628443Y717164D01*
X631664Y715830D01*
X634130Y713364D01*
X635464Y710143D01*
X635464Y706657D01*
X634130Y703436D01*
X631664Y700970D01*
X628443Y699636D01*
X624957Y699636D01*
G37*
%LPD*%
%LPC*%
G36*
X599557Y699636D02*
X599557Y699636D01*
X596336Y700970D01*
X593870Y703436D01*
X592536Y706657D01*
X592536Y710143D01*
X593870Y713364D01*
X596336Y715830D01*
X599557Y717164D01*
X603043Y717164D01*
X606264Y715830D01*
X608730Y713364D01*
X610064Y710143D01*
X610064Y706657D01*
X608730Y703436D01*
X606264Y700970D01*
X603043Y699636D01*
X599557Y699636D01*
G37*
%LPD*%
%LPC*%
G36*
X904357Y420236D02*
X904357Y420236D01*
X901136Y421570D01*
X898670Y424036D01*
X897336Y427257D01*
X897336Y430743D01*
X898670Y433964D01*
X901136Y436430D01*
X904357Y437764D01*
X907843Y437764D01*
X911064Y436430D01*
X913530Y433964D01*
X914864Y430743D01*
X914864Y427257D01*
X913530Y424036D01*
X911064Y421570D01*
X907843Y420236D01*
X904357Y420236D01*
G37*
%LPD*%
%LPC*%
G36*
X878957Y420236D02*
X878957Y420236D01*
X875736Y421570D01*
X873270Y424036D01*
X871936Y427257D01*
X871936Y430743D01*
X873270Y433964D01*
X875736Y436430D01*
X878957Y437764D01*
X882443Y437764D01*
X885664Y436430D01*
X888130Y433964D01*
X889464Y430743D01*
X889464Y427257D01*
X888130Y424036D01*
X885664Y421570D01*
X882443Y420236D01*
X878957Y420236D01*
G37*
%LPD*%
%LPC*%
G36*
X828157Y420236D02*
X828157Y420236D01*
X824936Y421570D01*
X822470Y424036D01*
X821136Y427257D01*
X821136Y430743D01*
X822470Y433964D01*
X824936Y436430D01*
X828157Y437764D01*
X831643Y437764D01*
X834864Y436430D01*
X837330Y433964D01*
X838664Y430743D01*
X838664Y427257D01*
X837330Y424036D01*
X834864Y421570D01*
X831643Y420236D01*
X828157Y420236D01*
G37*
%LPD*%
%LPC*%
G36*
X650357Y674236D02*
X650357Y674236D01*
X647136Y675570D01*
X644670Y678036D01*
X643336Y681257D01*
X643336Y684743D01*
X644670Y687964D01*
X647136Y690430D01*
X650357Y691764D01*
X653843Y691764D01*
X657064Y690430D01*
X659530Y687964D01*
X660864Y684743D01*
X660864Y681257D01*
X659530Y678036D01*
X657064Y675570D01*
X653843Y674236D01*
X650357Y674236D01*
G37*
%LPD*%
%LPC*%
G36*
X624957Y674236D02*
X624957Y674236D01*
X621736Y675570D01*
X619270Y678036D01*
X617936Y681257D01*
X617936Y684743D01*
X619270Y687964D01*
X621736Y690430D01*
X624957Y691764D01*
X628443Y691764D01*
X631664Y690430D01*
X634130Y687964D01*
X635464Y684743D01*
X635464Y681257D01*
X634130Y678036D01*
X631664Y675570D01*
X628443Y674236D01*
X624957Y674236D01*
G37*
%LPD*%
%LPC*%
G36*
X1031357Y674236D02*
X1031357Y674236D01*
X1028136Y675570D01*
X1025670Y678036D01*
X1024336Y681257D01*
X1024336Y684743D01*
X1025670Y687964D01*
X1028136Y690430D01*
X1031357Y691764D01*
X1034843Y691764D01*
X1038064Y690430D01*
X1040530Y687964D01*
X1041864Y684743D01*
X1041864Y681257D01*
X1040530Y678036D01*
X1038064Y675570D01*
X1034843Y674236D01*
X1031357Y674236D01*
G37*
%LPD*%
%LPC*%
G36*
X1005957Y674236D02*
X1005957Y674236D01*
X1002736Y675570D01*
X1000270Y678036D01*
X998936Y681257D01*
X998936Y684743D01*
X1000270Y687964D01*
X1002736Y690430D01*
X1005957Y691764D01*
X1009443Y691764D01*
X1012664Y690430D01*
X1015130Y687964D01*
X1016464Y684743D01*
X1016464Y681257D01*
X1015130Y678036D01*
X1012664Y675570D01*
X1009443Y674236D01*
X1005957Y674236D01*
G37*
%LPD*%
%LPC*%
G36*
X980557Y674236D02*
X980557Y674236D01*
X977336Y675570D01*
X974870Y678036D01*
X973536Y681257D01*
X973536Y684743D01*
X974870Y687964D01*
X977336Y690430D01*
X980557Y691764D01*
X984043Y691764D01*
X987264Y690430D01*
X989730Y687964D01*
X991064Y684743D01*
X991064Y681257D01*
X989730Y678036D01*
X987264Y675570D01*
X984043Y674236D01*
X980557Y674236D01*
G37*
%LPD*%
%LPC*%
G36*
X955157Y674236D02*
X955157Y674236D01*
X951936Y675570D01*
X949470Y678036D01*
X948136Y681257D01*
X948136Y684743D01*
X949470Y687964D01*
X951936Y690430D01*
X955157Y691764D01*
X958643Y691764D01*
X961864Y690430D01*
X964330Y687964D01*
X965664Y684743D01*
X965664Y681257D01*
X964330Y678036D01*
X961864Y675570D01*
X958643Y674236D01*
X955157Y674236D01*
G37*
%LPD*%
%LPC*%
G36*
X929757Y674236D02*
X929757Y674236D01*
X926536Y675570D01*
X924070Y678036D01*
X922736Y681257D01*
X922736Y684743D01*
X924070Y687964D01*
X926536Y690430D01*
X929757Y691764D01*
X933243Y691764D01*
X936464Y690430D01*
X938930Y687964D01*
X940264Y684743D01*
X940264Y681257D01*
X938930Y678036D01*
X936464Y675570D01*
X933243Y674236D01*
X929757Y674236D01*
G37*
%LPD*%
%LPC*%
G36*
X904357Y674236D02*
X904357Y674236D01*
X901136Y675570D01*
X898670Y678036D01*
X897336Y681257D01*
X897336Y684743D01*
X898670Y687964D01*
X901136Y690430D01*
X904357Y691764D01*
X907843Y691764D01*
X911064Y690430D01*
X913530Y687964D01*
X914864Y684743D01*
X914864Y681257D01*
X913530Y678036D01*
X911064Y675570D01*
X907843Y674236D01*
X904357Y674236D01*
G37*
%LPD*%
%LPC*%
G36*
X878957Y674236D02*
X878957Y674236D01*
X875736Y675570D01*
X873270Y678036D01*
X871936Y681257D01*
X871936Y684743D01*
X873270Y687964D01*
X875736Y690430D01*
X878957Y691764D01*
X882443Y691764D01*
X885664Y690430D01*
X888130Y687964D01*
X889464Y684743D01*
X889464Y681257D01*
X888130Y678036D01*
X885664Y675570D01*
X882443Y674236D01*
X878957Y674236D01*
G37*
%LPD*%
%LPC*%
G36*
X828157Y674236D02*
X828157Y674236D01*
X824936Y675570D01*
X822470Y678036D01*
X821136Y681257D01*
X821136Y684743D01*
X822470Y687964D01*
X824936Y690430D01*
X828157Y691764D01*
X831643Y691764D01*
X834864Y690430D01*
X837330Y687964D01*
X838664Y684743D01*
X838664Y681257D01*
X837330Y678036D01*
X834864Y675570D01*
X831643Y674236D01*
X828157Y674236D01*
G37*
%LPD*%
%LPC*%
G36*
X802757Y674236D02*
X802757Y674236D01*
X799536Y675570D01*
X797070Y678036D01*
X795736Y681257D01*
X795736Y684743D01*
X797070Y687964D01*
X799536Y690430D01*
X802757Y691764D01*
X806243Y691764D01*
X809464Y690430D01*
X811930Y687964D01*
X813264Y684743D01*
X813264Y681257D01*
X811930Y678036D01*
X809464Y675570D01*
X806243Y674236D01*
X802757Y674236D01*
G37*
%LPD*%
%LPC*%
G36*
X751957Y674236D02*
X751957Y674236D01*
X748736Y675570D01*
X746270Y678036D01*
X744936Y681257D01*
X744936Y684743D01*
X746270Y687964D01*
X748736Y690430D01*
X751957Y691764D01*
X755443Y691764D01*
X758664Y690430D01*
X761130Y687964D01*
X762464Y684743D01*
X762464Y681257D01*
X761130Y678036D01*
X758664Y675570D01*
X755443Y674236D01*
X751957Y674236D01*
G37*
%LPD*%
%LPC*%
G36*
X726557Y674236D02*
X726557Y674236D01*
X723336Y675570D01*
X720870Y678036D01*
X719536Y681257D01*
X719536Y684743D01*
X720870Y687964D01*
X723336Y690430D01*
X726557Y691764D01*
X730043Y691764D01*
X733264Y690430D01*
X735730Y687964D01*
X737064Y684743D01*
X737064Y681257D01*
X735730Y678036D01*
X733264Y675570D01*
X730043Y674236D01*
X726557Y674236D01*
G37*
%LPD*%
%LPC*%
G36*
X701157Y674236D02*
X701157Y674236D01*
X697936Y675570D01*
X695470Y678036D01*
X694136Y681257D01*
X694136Y684743D01*
X695470Y687964D01*
X697936Y690430D01*
X701157Y691764D01*
X704643Y691764D01*
X707864Y690430D01*
X710330Y687964D01*
X711664Y684743D01*
X711664Y681257D01*
X710330Y678036D01*
X707864Y675570D01*
X704643Y674236D01*
X701157Y674236D01*
G37*
%LPD*%
%LPC*%
G36*
X675757Y674236D02*
X675757Y674236D01*
X672536Y675570D01*
X670070Y678036D01*
X668736Y681257D01*
X668736Y684743D01*
X670070Y687964D01*
X672536Y690430D01*
X675757Y691764D01*
X679243Y691764D01*
X682464Y690430D01*
X684930Y687964D01*
X686264Y684743D01*
X686264Y681257D01*
X684930Y678036D01*
X682464Y675570D01*
X679243Y674236D01*
X675757Y674236D01*
G37*
%LPD*%
%LPC*%
G36*
X599557Y674236D02*
X599557Y674236D01*
X596336Y675570D01*
X593870Y678036D01*
X592536Y681257D01*
X592536Y684743D01*
X593870Y687964D01*
X596336Y690430D01*
X599557Y691764D01*
X603043Y691764D01*
X606264Y690430D01*
X608730Y687964D01*
X610064Y684743D01*
X610064Y681257D01*
X608730Y678036D01*
X606264Y675570D01*
X603043Y674236D01*
X599557Y674236D01*
G37*
%LPD*%
%LPC*%
G36*
X802757Y420236D02*
X802757Y420236D01*
X799536Y421570D01*
X797070Y424036D01*
X795736Y427257D01*
X795736Y430743D01*
X797070Y433964D01*
X799536Y436430D01*
X802757Y437764D01*
X806243Y437764D01*
X809464Y436430D01*
X811930Y433964D01*
X813264Y430743D01*
X813264Y427257D01*
X811930Y424036D01*
X809464Y421570D01*
X806243Y420236D01*
X802757Y420236D01*
G37*
%LPD*%
%LPC*%
G36*
X777357Y420236D02*
X777357Y420236D01*
X774136Y421570D01*
X771670Y424036D01*
X770336Y427257D01*
X770336Y430743D01*
X771670Y433964D01*
X774136Y436430D01*
X777357Y437764D01*
X780843Y437764D01*
X784064Y436430D01*
X786530Y433964D01*
X787864Y430743D01*
X787864Y427257D01*
X786530Y424036D01*
X784064Y421570D01*
X780843Y420236D01*
X777357Y420236D01*
G37*
%LPD*%
%LPC*%
G36*
X751957Y420236D02*
X751957Y420236D01*
X748736Y421570D01*
X746270Y424036D01*
X744936Y427257D01*
X744936Y430743D01*
X746270Y433964D01*
X748736Y436430D01*
X751957Y437764D01*
X755443Y437764D01*
X758664Y436430D01*
X761130Y433964D01*
X762464Y430743D01*
X762464Y427257D01*
X761130Y424036D01*
X758664Y421570D01*
X755443Y420236D01*
X751957Y420236D01*
G37*
%LPD*%
%LPC*%
G36*
X366681Y791959D02*
X366681Y791959D01*
X363689Y793199D01*
X361399Y795489D01*
X360159Y798481D01*
X360159Y801719D01*
X361399Y804711D01*
X363689Y807001D01*
X366681Y808241D01*
X369919Y808241D01*
X372911Y807001D01*
X375201Y804711D01*
X376441Y801719D01*
X376441Y798481D01*
X375201Y795489D01*
X372911Y793199D01*
X369919Y791959D01*
X366681Y791959D01*
G37*
%LPD*%
%LPC*%
G36*
X366681Y436359D02*
X366681Y436359D01*
X363689Y437599D01*
X361399Y439889D01*
X360159Y442881D01*
X360159Y446119D01*
X361399Y449111D01*
X363689Y451401D01*
X366681Y452641D01*
X369919Y452641D01*
X372911Y451401D01*
X375201Y449111D01*
X376441Y446119D01*
X376441Y442881D01*
X375201Y439889D01*
X372911Y437599D01*
X369919Y436359D01*
X366681Y436359D01*
G37*
%LPD*%
%LPC*%
G36*
X341281Y410959D02*
X341281Y410959D01*
X338289Y412199D01*
X335999Y414489D01*
X334759Y417481D01*
X334759Y420719D01*
X335999Y423711D01*
X338289Y426001D01*
X341281Y427241D01*
X344519Y427241D01*
X347511Y426001D01*
X349801Y423711D01*
X351041Y420719D01*
X351041Y417481D01*
X349801Y414489D01*
X347511Y412199D01*
X344519Y410959D01*
X341281Y410959D01*
G37*
%LPD*%
%LPC*%
G36*
X366681Y385559D02*
X366681Y385559D01*
X363689Y386799D01*
X361399Y389089D01*
X360159Y392081D01*
X360159Y395319D01*
X361399Y398311D01*
X363689Y400601D01*
X366681Y401841D01*
X369919Y401841D01*
X372911Y400601D01*
X375201Y398311D01*
X376441Y395319D01*
X376441Y392081D01*
X375201Y389089D01*
X372911Y386799D01*
X369919Y385559D01*
X366681Y385559D01*
G37*
%LPD*%
%LPC*%
G36*
X341281Y385559D02*
X341281Y385559D01*
X338289Y386799D01*
X335999Y389089D01*
X334759Y392081D01*
X334759Y395319D01*
X335999Y398311D01*
X338289Y400601D01*
X341281Y401841D01*
X344519Y401841D01*
X347511Y400601D01*
X349801Y398311D01*
X351041Y395319D01*
X351041Y392081D01*
X349801Y389089D01*
X347511Y386799D01*
X344519Y385559D01*
X341281Y385559D01*
G37*
%LPD*%
%LPC*%
G36*
X366681Y410959D02*
X366681Y410959D01*
X363689Y412199D01*
X361399Y414489D01*
X360159Y417481D01*
X360159Y420719D01*
X361399Y423711D01*
X363689Y426001D01*
X366681Y427241D01*
X369919Y427241D01*
X372911Y426001D01*
X375201Y423711D01*
X376441Y420719D01*
X376441Y417481D01*
X375201Y414489D01*
X372911Y412199D01*
X369919Y410959D01*
X366681Y410959D01*
G37*
%LPD*%
%LPC*%
G36*
X366681Y360159D02*
X366681Y360159D01*
X363689Y361399D01*
X361399Y363689D01*
X360159Y366681D01*
X360159Y369919D01*
X361399Y372911D01*
X363689Y375201D01*
X366681Y376441D01*
X369919Y376441D01*
X372911Y375201D01*
X375201Y372911D01*
X376441Y369919D01*
X376441Y366681D01*
X375201Y363689D01*
X372911Y361399D01*
X369919Y360159D01*
X366681Y360159D01*
G37*
%LPD*%
%LPC*%
G36*
X1293781Y683259D02*
X1293781Y683259D01*
X1290789Y684499D01*
X1288499Y686789D01*
X1287259Y689781D01*
X1287259Y693019D01*
X1288499Y696011D01*
X1290789Y698301D01*
X1293781Y699541D01*
X1297019Y699541D01*
X1300011Y698301D01*
X1302301Y696011D01*
X1303541Y693019D01*
X1303541Y689781D01*
X1302301Y686789D01*
X1300011Y684499D01*
X1297019Y683259D01*
X1293781Y683259D01*
G37*
%LPD*%
%LPC*%
G36*
X341281Y360159D02*
X341281Y360159D01*
X338289Y361399D01*
X335999Y363689D01*
X334759Y366681D01*
X334759Y369919D01*
X335999Y372911D01*
X338289Y375201D01*
X341281Y376441D01*
X344519Y376441D01*
X347511Y375201D01*
X349801Y372911D01*
X351041Y369919D01*
X351041Y366681D01*
X349801Y363689D01*
X347511Y361399D01*
X344519Y360159D01*
X341281Y360159D01*
G37*
%LPD*%
%LPC*%
G36*
X366681Y334759D02*
X366681Y334759D01*
X363689Y335999D01*
X361399Y338289D01*
X360159Y341281D01*
X360159Y344519D01*
X361399Y347511D01*
X363689Y349801D01*
X366681Y351041D01*
X369919Y351041D01*
X372911Y349801D01*
X375201Y347511D01*
X376441Y344519D01*
X376441Y341281D01*
X375201Y338289D01*
X372911Y335999D01*
X369919Y334759D01*
X366681Y334759D01*
G37*
%LPD*%
%LPC*%
G36*
X341281Y614159D02*
X341281Y614159D01*
X338289Y615399D01*
X335999Y617689D01*
X334759Y620681D01*
X334759Y623919D01*
X335999Y626911D01*
X338289Y629201D01*
X341281Y630441D01*
X344519Y630441D01*
X347511Y629201D01*
X349801Y626911D01*
X351041Y623919D01*
X351041Y620681D01*
X349801Y617689D01*
X347511Y615399D01*
X344519Y614159D01*
X341281Y614159D01*
G37*
%LPD*%
%LPC*%
G36*
X341281Y639559D02*
X341281Y639559D01*
X338289Y640799D01*
X335999Y643089D01*
X334759Y646081D01*
X334759Y649319D01*
X335999Y652311D01*
X338289Y654601D01*
X341281Y655841D01*
X344519Y655841D01*
X347511Y654601D01*
X349801Y652311D01*
X351041Y649319D01*
X351041Y646081D01*
X349801Y643089D01*
X347511Y640799D01*
X344519Y639559D01*
X341281Y639559D01*
G37*
%LPD*%
%LPC*%
G36*
X366681Y817359D02*
X366681Y817359D01*
X363689Y818599D01*
X361399Y820889D01*
X360159Y823881D01*
X360159Y827119D01*
X361399Y830111D01*
X363689Y832401D01*
X366681Y833641D01*
X369919Y833641D01*
X372911Y832401D01*
X375201Y830111D01*
X376441Y827119D01*
X376441Y823881D01*
X375201Y820889D01*
X372911Y818599D01*
X369919Y817359D01*
X366681Y817359D01*
G37*
%LPD*%
%LPC*%
G36*
X341281Y817359D02*
X341281Y817359D01*
X338289Y818599D01*
X335999Y820889D01*
X334759Y823881D01*
X334759Y827119D01*
X335999Y830111D01*
X338289Y832401D01*
X341281Y833641D01*
X344519Y833641D01*
X347511Y832401D01*
X349801Y830111D01*
X351041Y827119D01*
X351041Y823881D01*
X349801Y820889D01*
X347511Y818599D01*
X344519Y817359D01*
X341281Y817359D01*
G37*
%LPD*%
%LPC*%
G36*
X366681Y639559D02*
X366681Y639559D01*
X363689Y640799D01*
X361399Y643089D01*
X360159Y646081D01*
X360159Y649319D01*
X361399Y652311D01*
X363689Y654601D01*
X366681Y655841D01*
X369919Y655841D01*
X372911Y654601D01*
X375201Y652311D01*
X376441Y649319D01*
X376441Y646081D01*
X375201Y643089D01*
X372911Y640799D01*
X369919Y639559D01*
X366681Y639559D01*
G37*
%LPD*%
%LPC*%
G36*
X366681Y766559D02*
X366681Y766559D01*
X363689Y767799D01*
X361399Y770089D01*
X360159Y773081D01*
X360159Y776319D01*
X361399Y779311D01*
X363689Y781601D01*
X366681Y782841D01*
X369919Y782841D01*
X372911Y781601D01*
X375201Y779311D01*
X376441Y776319D01*
X376441Y773081D01*
X375201Y770089D01*
X372911Y767799D01*
X369919Y766559D01*
X366681Y766559D01*
G37*
%LPD*%
%LPC*%
G36*
X341281Y766559D02*
X341281Y766559D01*
X338289Y767799D01*
X335999Y770089D01*
X334759Y773081D01*
X334759Y776319D01*
X335999Y779311D01*
X338289Y781601D01*
X341281Y782841D01*
X344519Y782841D01*
X347511Y781601D01*
X349801Y779311D01*
X351041Y776319D01*
X351041Y773081D01*
X349801Y770089D01*
X347511Y767799D01*
X344519Y766559D01*
X341281Y766559D01*
G37*
%LPD*%
%LPC*%
G36*
X341281Y664959D02*
X341281Y664959D01*
X338289Y666199D01*
X335999Y668489D01*
X334759Y671481D01*
X334759Y674719D01*
X335999Y677711D01*
X338289Y680001D01*
X341281Y681241D01*
X344519Y681241D01*
X347511Y680001D01*
X349801Y677711D01*
X351041Y674719D01*
X351041Y671481D01*
X349801Y668489D01*
X347511Y666199D01*
X344519Y664959D01*
X341281Y664959D01*
G37*
%LPD*%
%LPC*%
G36*
X366681Y664959D02*
X366681Y664959D01*
X363689Y666199D01*
X361399Y668489D01*
X360159Y671481D01*
X360159Y674719D01*
X361399Y677711D01*
X363689Y680001D01*
X366681Y681241D01*
X369919Y681241D01*
X372911Y680001D01*
X375201Y677711D01*
X376441Y674719D01*
X376441Y671481D01*
X375201Y668489D01*
X372911Y666199D01*
X369919Y664959D01*
X366681Y664959D01*
G37*
%LPD*%
%LPC*%
G36*
X366681Y741159D02*
X366681Y741159D01*
X363689Y742399D01*
X361399Y744689D01*
X360159Y747681D01*
X360159Y750919D01*
X361399Y753911D01*
X363689Y756201D01*
X366681Y757441D01*
X369919Y757441D01*
X372911Y756201D01*
X375201Y753911D01*
X376441Y750919D01*
X376441Y747681D01*
X375201Y744689D01*
X372911Y742399D01*
X369919Y741159D01*
X366681Y741159D01*
G37*
%LPD*%
%LPC*%
G36*
X341281Y741159D02*
X341281Y741159D01*
X338289Y742399D01*
X335999Y744689D01*
X334759Y747681D01*
X334759Y750919D01*
X335999Y753911D01*
X338289Y756201D01*
X341281Y757441D01*
X344519Y757441D01*
X347511Y756201D01*
X349801Y753911D01*
X351041Y750919D01*
X351041Y747681D01*
X349801Y744689D01*
X347511Y742399D01*
X344519Y741159D01*
X341281Y741159D01*
G37*
%LPD*%
%LPC*%
G36*
X366681Y512559D02*
X366681Y512559D01*
X363689Y513799D01*
X361399Y516089D01*
X360159Y519081D01*
X360159Y522319D01*
X361399Y525311D01*
X363689Y527601D01*
X366681Y528841D01*
X369919Y528841D01*
X372911Y527601D01*
X375201Y525311D01*
X376441Y522319D01*
X376441Y519081D01*
X375201Y516089D01*
X372911Y513799D01*
X369919Y512559D01*
X366681Y512559D01*
G37*
%LPD*%
%LPC*%
G36*
X341281Y537959D02*
X341281Y537959D01*
X338289Y539199D01*
X335999Y541489D01*
X334759Y544481D01*
X334759Y547719D01*
X335999Y550711D01*
X338289Y553001D01*
X341281Y554241D01*
X344519Y554241D01*
X347511Y553001D01*
X349801Y550711D01*
X351041Y547719D01*
X351041Y544481D01*
X349801Y541489D01*
X347511Y539199D01*
X344519Y537959D01*
X341281Y537959D01*
G37*
%LPD*%
%LPC*%
G36*
X366681Y537959D02*
X366681Y537959D01*
X363689Y539199D01*
X361399Y541489D01*
X360159Y544481D01*
X360159Y547719D01*
X361399Y550711D01*
X363689Y553001D01*
X366681Y554241D01*
X369919Y554241D01*
X372911Y553001D01*
X375201Y550711D01*
X376441Y547719D01*
X376441Y544481D01*
X375201Y541489D01*
X372911Y539199D01*
X369919Y537959D01*
X366681Y537959D01*
G37*
%LPD*%
%LPC*%
G36*
X366681Y715759D02*
X366681Y715759D01*
X363689Y716999D01*
X361399Y719289D01*
X360159Y722281D01*
X360159Y725519D01*
X361399Y728511D01*
X363689Y730801D01*
X366681Y732041D01*
X369919Y732041D01*
X372911Y730801D01*
X375201Y728511D01*
X376441Y725519D01*
X376441Y722281D01*
X375201Y719289D01*
X372911Y716999D01*
X369919Y715759D01*
X366681Y715759D01*
G37*
%LPD*%
%LPC*%
G36*
X341281Y715759D02*
X341281Y715759D01*
X338289Y716999D01*
X335999Y719289D01*
X334759Y722281D01*
X334759Y725519D01*
X335999Y728511D01*
X338289Y730801D01*
X341281Y732041D01*
X344519Y732041D01*
X347511Y730801D01*
X349801Y728511D01*
X351041Y725519D01*
X351041Y722281D01*
X349801Y719289D01*
X347511Y716999D01*
X344519Y715759D01*
X341281Y715759D01*
G37*
%LPD*%
%LPC*%
G36*
X341281Y791959D02*
X341281Y791959D01*
X338289Y793199D01*
X335999Y795489D01*
X334759Y798481D01*
X334759Y801719D01*
X335999Y804711D01*
X338289Y807001D01*
X341281Y808241D01*
X344519Y808241D01*
X347511Y807001D01*
X349801Y804711D01*
X351041Y801719D01*
X351041Y798481D01*
X349801Y795489D01*
X347511Y793199D01*
X344519Y791959D01*
X341281Y791959D01*
G37*
%LPD*%
%LPC*%
G36*
X366681Y690359D02*
X366681Y690359D01*
X363689Y691599D01*
X361399Y693889D01*
X360159Y696881D01*
X360159Y700119D01*
X361399Y703111D01*
X363689Y705401D01*
X366681Y706641D01*
X369919Y706641D01*
X372911Y705401D01*
X375201Y703111D01*
X376441Y700119D01*
X376441Y696881D01*
X375201Y693889D01*
X372911Y691599D01*
X369919Y690359D01*
X366681Y690359D01*
G37*
%LPD*%
%LPC*%
G36*
X341281Y690359D02*
X341281Y690359D01*
X338289Y691599D01*
X335999Y693889D01*
X334759Y696881D01*
X334759Y700119D01*
X335999Y703111D01*
X338289Y705401D01*
X341281Y706641D01*
X344519Y706641D01*
X347511Y705401D01*
X349801Y703111D01*
X351041Y700119D01*
X351041Y696881D01*
X349801Y693889D01*
X347511Y691599D01*
X344519Y690359D01*
X341281Y690359D01*
G37*
%LPD*%
%LPC*%
G36*
X366681Y614159D02*
X366681Y614159D01*
X363689Y615399D01*
X361399Y617689D01*
X360159Y620681D01*
X360159Y623919D01*
X361399Y626911D01*
X363689Y629201D01*
X366681Y630441D01*
X369919Y630441D01*
X372911Y629201D01*
X375201Y626911D01*
X376441Y623919D01*
X376441Y620681D01*
X375201Y617689D01*
X372911Y615399D01*
X369919Y614159D01*
X366681Y614159D01*
G37*
%LPD*%
%LPC*%
G36*
X341281Y436359D02*
X341281Y436359D01*
X338289Y437599D01*
X335999Y439889D01*
X334759Y442881D01*
X334759Y446119D01*
X335999Y449111D01*
X338289Y451401D01*
X341281Y452641D01*
X344519Y452641D01*
X347511Y451401D01*
X349801Y449111D01*
X351041Y446119D01*
X351041Y442881D01*
X349801Y439889D01*
X347511Y437599D01*
X344519Y436359D01*
X341281Y436359D01*
G37*
%LPD*%
%LPC*%
G36*
X341281Y512559D02*
X341281Y512559D01*
X338289Y513799D01*
X335999Y516089D01*
X334759Y519081D01*
X334759Y522319D01*
X335999Y525311D01*
X338289Y527601D01*
X341281Y528841D01*
X344519Y528841D01*
X347511Y527601D01*
X349801Y525311D01*
X351041Y522319D01*
X351041Y519081D01*
X349801Y516089D01*
X347511Y513799D01*
X344519Y512559D01*
X341281Y512559D01*
G37*
%LPD*%
%LPC*%
G36*
X341281Y563359D02*
X341281Y563359D01*
X338289Y564599D01*
X335999Y566889D01*
X334759Y569881D01*
X334759Y573119D01*
X335999Y576111D01*
X338289Y578401D01*
X341281Y579641D01*
X344519Y579641D01*
X347511Y578401D01*
X349801Y576111D01*
X351041Y573119D01*
X351041Y569881D01*
X349801Y566889D01*
X347511Y564599D01*
X344519Y563359D01*
X341281Y563359D01*
G37*
%LPD*%
%LPC*%
G36*
X341281Y588759D02*
X341281Y588759D01*
X338289Y589999D01*
X335999Y592289D01*
X334759Y595281D01*
X334759Y598519D01*
X335999Y601511D01*
X338289Y603801D01*
X341281Y605041D01*
X344519Y605041D01*
X347511Y603801D01*
X349801Y601511D01*
X351041Y598519D01*
X351041Y595281D01*
X349801Y592289D01*
X347511Y589999D01*
X344519Y588759D01*
X341281Y588759D01*
G37*
%LPD*%
%LPC*%
G36*
X366681Y461759D02*
X366681Y461759D01*
X363689Y462999D01*
X361399Y465289D01*
X360159Y468281D01*
X360159Y471519D01*
X361399Y474511D01*
X363689Y476801D01*
X366681Y478041D01*
X369919Y478041D01*
X372911Y476801D01*
X375201Y474511D01*
X376441Y471519D01*
X376441Y468281D01*
X375201Y465289D01*
X372911Y462999D01*
X369919Y461759D01*
X366681Y461759D01*
G37*
%LPD*%
%LPC*%
G36*
X366681Y563359D02*
X366681Y563359D01*
X363689Y564599D01*
X361399Y566889D01*
X360159Y569881D01*
X360159Y573119D01*
X361399Y576111D01*
X363689Y578401D01*
X366681Y579641D01*
X369919Y579641D01*
X372911Y578401D01*
X375201Y576111D01*
X376441Y573119D01*
X376441Y569881D01*
X375201Y566889D01*
X372911Y564599D01*
X369919Y563359D01*
X366681Y563359D01*
G37*
%LPD*%
%LPC*%
G36*
X366681Y487159D02*
X366681Y487159D01*
X363689Y488399D01*
X361399Y490689D01*
X360159Y493681D01*
X360159Y496919D01*
X361399Y499911D01*
X363689Y502201D01*
X366681Y503441D01*
X369919Y503441D01*
X372911Y502201D01*
X375201Y499911D01*
X376441Y496919D01*
X376441Y493681D01*
X375201Y490689D01*
X372911Y488399D01*
X369919Y487159D01*
X366681Y487159D01*
G37*
%LPD*%
%LPC*%
G36*
X366681Y588759D02*
X366681Y588759D01*
X363689Y589999D01*
X361399Y592289D01*
X360159Y595281D01*
X360159Y598519D01*
X361399Y601511D01*
X363689Y603801D01*
X366681Y605041D01*
X369919Y605041D01*
X372911Y603801D01*
X375201Y601511D01*
X376441Y598519D01*
X376441Y595281D01*
X375201Y592289D01*
X372911Y589999D01*
X369919Y588759D01*
X366681Y588759D01*
G37*
%LPD*%
%LPC*%
G36*
X341281Y487159D02*
X341281Y487159D01*
X338289Y488399D01*
X335999Y490689D01*
X334759Y493681D01*
X334759Y496919D01*
X335999Y499911D01*
X338289Y502201D01*
X341281Y503441D01*
X344519Y503441D01*
X347511Y502201D01*
X349801Y499911D01*
X351041Y496919D01*
X351041Y493681D01*
X349801Y490689D01*
X347511Y488399D01*
X344519Y487159D01*
X341281Y487159D01*
G37*
%LPD*%
%LPC*%
G36*
X341281Y461759D02*
X341281Y461759D01*
X338289Y462999D01*
X335999Y465289D01*
X334759Y468281D01*
X334759Y471519D01*
X335999Y474511D01*
X338289Y476801D01*
X341281Y478041D01*
X344519Y478041D01*
X347511Y476801D01*
X349801Y474511D01*
X351041Y471519D01*
X351041Y468281D01*
X349801Y465289D01*
X347511Y462999D01*
X344519Y461759D01*
X341281Y461759D01*
G37*
%LPD*%
%LPC*%
G36*
X1217795Y183435D02*
X1217795Y183435D01*
X1215198Y184511D01*
X1213211Y186498D01*
X1212135Y189095D01*
X1212135Y191905D01*
X1213211Y194502D01*
X1215198Y196489D01*
X1217795Y197565D01*
X1220605Y197565D01*
X1223202Y196489D01*
X1225189Y194502D01*
X1226265Y191905D01*
X1226265Y189095D01*
X1225189Y186498D01*
X1223202Y184511D01*
X1220605Y183435D01*
X1217795Y183435D01*
G37*
%LPD*%
%LPC*%
G36*
X1166995Y183435D02*
X1166995Y183435D01*
X1164398Y184511D01*
X1162411Y186498D01*
X1161335Y189095D01*
X1161335Y191905D01*
X1162411Y194502D01*
X1164398Y196489D01*
X1166995Y197565D01*
X1169805Y197565D01*
X1172402Y196489D01*
X1174389Y194502D01*
X1175465Y191905D01*
X1175465Y189095D01*
X1174389Y186498D01*
X1172402Y184511D01*
X1169805Y183435D01*
X1166995Y183435D01*
G37*
%LPD*%
%LPC*%
G36*
X1166995Y234235D02*
X1166995Y234235D01*
X1164398Y235311D01*
X1162411Y237298D01*
X1161335Y239895D01*
X1161335Y242705D01*
X1162411Y245302D01*
X1164398Y247289D01*
X1166995Y248365D01*
X1169805Y248365D01*
X1172402Y247289D01*
X1174389Y245302D01*
X1175465Y242705D01*
X1175465Y239895D01*
X1174389Y237298D01*
X1172402Y235311D01*
X1169805Y234235D01*
X1166995Y234235D01*
G37*
%LPD*%
%LPC*%
G36*
X335438Y927861D02*
X335438Y927861D01*
X333384Y928712D01*
X331812Y930284D01*
X330961Y932338D01*
X330961Y934562D01*
X331812Y936616D01*
X333384Y938188D01*
X335438Y939039D01*
X337662Y939039D01*
X339716Y938188D01*
X341288Y936616D01*
X342139Y934562D01*
X342139Y932338D01*
X341288Y930284D01*
X339716Y928712D01*
X337662Y927861D01*
X335438Y927861D01*
G37*
%LPD*%
%LPC*%
G36*
X1224438Y1048511D02*
X1224438Y1048511D01*
X1222384Y1049362D01*
X1220812Y1050934D01*
X1219961Y1052988D01*
X1219961Y1055212D01*
X1220812Y1057266D01*
X1222384Y1058838D01*
X1224438Y1059689D01*
X1226662Y1059689D01*
X1228716Y1058838D01*
X1230288Y1057266D01*
X1231139Y1055212D01*
X1231139Y1052988D01*
X1230288Y1050934D01*
X1228716Y1049362D01*
X1226662Y1048511D01*
X1224438Y1048511D01*
G37*
%LPD*%
%LPC*%
G36*
X193023Y960773D02*
X193023Y960773D01*
X193023Y971503D01*
X194390Y971287D01*
X196237Y970687D01*
X197968Y969805D01*
X199539Y968663D01*
X200913Y967289D01*
X202055Y965718D01*
X202937Y963987D01*
X203537Y962140D01*
X203753Y960773D01*
X193023Y960773D01*
G37*
%LPD*%
%LPC*%
G36*
X318023Y960773D02*
X318023Y960773D01*
X318023Y971503D01*
X319390Y971287D01*
X321237Y970687D01*
X322968Y969805D01*
X324539Y968663D01*
X325913Y967289D01*
X327055Y965718D01*
X327937Y963987D01*
X328537Y962140D01*
X328753Y960773D01*
X318023Y960773D01*
G37*
%LPD*%
%LPC*%
G36*
X179247Y960773D02*
X179247Y960773D01*
X179463Y962140D01*
X180063Y963987D01*
X180945Y965718D01*
X182087Y967289D01*
X183461Y968663D01*
X185032Y969805D01*
X186763Y970687D01*
X188610Y971287D01*
X189977Y971503D01*
X189977Y960773D01*
X179247Y960773D01*
G37*
%LPD*%
%LPC*%
G36*
X304247Y960773D02*
X304247Y960773D01*
X304463Y962140D01*
X305063Y963987D01*
X305945Y965718D01*
X307087Y967289D01*
X308461Y968663D01*
X310032Y969805D01*
X311763Y970687D01*
X313610Y971287D01*
X314977Y971503D01*
X314977Y960773D01*
X304247Y960773D01*
G37*
%LPD*%
%LPC*%
G36*
X193023Y957727D02*
X193023Y957727D01*
X203753Y957727D01*
X203537Y956360D01*
X202937Y954513D01*
X202055Y952782D01*
X200913Y951211D01*
X199539Y949837D01*
X197968Y948695D01*
X196237Y947813D01*
X194390Y947213D01*
X193023Y946997D01*
X193023Y957727D01*
G37*
%LPD*%
%LPC*%
G36*
X318023Y957727D02*
X318023Y957727D01*
X328753Y957727D01*
X328537Y956360D01*
X327937Y954513D01*
X327055Y952782D01*
X325913Y951211D01*
X324539Y949837D01*
X322968Y948695D01*
X321237Y947813D01*
X319390Y947213D01*
X318023Y946997D01*
X318023Y957727D01*
G37*
%LPD*%
%LPC*%
G36*
X313610Y947213D02*
X313610Y947213D01*
X311763Y947813D01*
X310032Y948695D01*
X308461Y949837D01*
X307087Y951211D01*
X305945Y952782D01*
X305063Y954513D01*
X304463Y956360D01*
X304247Y957727D01*
X314977Y957727D01*
X314977Y946997D01*
X313610Y947213D01*
G37*
%LPD*%
%LPC*%
G36*
X188610Y947213D02*
X188610Y947213D01*
X186763Y947813D01*
X185032Y948695D01*
X183461Y949837D01*
X182087Y951211D01*
X180945Y952782D01*
X180063Y954513D01*
X179463Y956360D01*
X179247Y957727D01*
X189977Y957727D01*
X189977Y946997D01*
X188610Y947213D01*
G37*
%LPD*%
%LPC*%
G36*
X856823Y430523D02*
X856823Y430523D01*
X856823Y437632D01*
X857856Y437427D01*
X859451Y436766D01*
X860887Y435807D01*
X862107Y434587D01*
X863066Y433151D01*
X863727Y431556D01*
X863932Y430523D01*
X856823Y430523D01*
G37*
%LPD*%
%LPC*%
G36*
X856823Y455923D02*
X856823Y455923D01*
X856823Y463032D01*
X857856Y462827D01*
X859451Y462166D01*
X860887Y461207D01*
X862107Y459987D01*
X863066Y458551D01*
X863727Y456956D01*
X863932Y455923D01*
X856823Y455923D01*
G37*
%LPD*%
%LPC*%
G36*
X780623Y455923D02*
X780623Y455923D01*
X780623Y463032D01*
X781656Y462827D01*
X783251Y462166D01*
X784687Y461207D01*
X785907Y459987D01*
X786866Y458551D01*
X787527Y456956D01*
X787732Y455923D01*
X780623Y455923D01*
G37*
%LPD*%
%LPC*%
G36*
X780623Y684523D02*
X780623Y684523D01*
X780623Y691632D01*
X781656Y691427D01*
X783251Y690766D01*
X784687Y689807D01*
X785907Y688587D01*
X786866Y687151D01*
X787527Y685556D01*
X787732Y684523D01*
X780623Y684523D01*
G37*
%LPD*%
%LPC*%
G36*
X856823Y684523D02*
X856823Y684523D01*
X856823Y691632D01*
X857856Y691427D01*
X859451Y690766D01*
X860887Y689807D01*
X862107Y688587D01*
X863066Y687151D01*
X863727Y685556D01*
X863932Y684523D01*
X856823Y684523D01*
G37*
%LPD*%
%LPC*%
G36*
X846668Y455923D02*
X846668Y455923D01*
X846873Y456956D01*
X847534Y458551D01*
X848493Y459987D01*
X849713Y461207D01*
X851149Y462166D01*
X852744Y462827D01*
X853777Y463032D01*
X853777Y455923D01*
X846668Y455923D01*
G37*
%LPD*%
%LPC*%
G36*
X846668Y430523D02*
X846668Y430523D01*
X846873Y431556D01*
X847534Y433151D01*
X848493Y434587D01*
X849713Y435807D01*
X851149Y436766D01*
X852744Y437427D01*
X853777Y437632D01*
X853777Y430523D01*
X846668Y430523D01*
G37*
%LPD*%
%LPC*%
G36*
X856823Y427477D02*
X856823Y427477D01*
X863932Y427477D01*
X863727Y426444D01*
X863066Y424849D01*
X862107Y423413D01*
X860887Y422193D01*
X859451Y421234D01*
X857856Y420573D01*
X856823Y420368D01*
X856823Y427477D01*
G37*
%LPD*%
%LPC*%
G36*
X770468Y684523D02*
X770468Y684523D01*
X770673Y685556D01*
X771334Y687151D01*
X772293Y688587D01*
X773513Y689807D01*
X774949Y690766D01*
X776544Y691427D01*
X777577Y691632D01*
X777577Y684523D01*
X770468Y684523D01*
G37*
%LPD*%
%LPC*%
G36*
X846668Y684523D02*
X846668Y684523D01*
X846873Y685556D01*
X847534Y687151D01*
X848493Y688587D01*
X849713Y689807D01*
X851149Y690766D01*
X852744Y691427D01*
X853777Y691632D01*
X853777Y684523D01*
X846668Y684523D01*
G37*
%LPD*%
%LPC*%
G36*
X856823Y452877D02*
X856823Y452877D01*
X863932Y452877D01*
X863727Y451844D01*
X863066Y450249D01*
X862107Y448813D01*
X860887Y447593D01*
X859451Y446634D01*
X857856Y445973D01*
X856823Y445768D01*
X856823Y452877D01*
G37*
%LPD*%
%LPC*%
G36*
X780623Y452877D02*
X780623Y452877D01*
X787732Y452877D01*
X787527Y451844D01*
X786866Y450249D01*
X785907Y448813D01*
X784687Y447593D01*
X783251Y446634D01*
X781656Y445973D01*
X780623Y445768D01*
X780623Y452877D01*
G37*
%LPD*%
%LPC*%
G36*
X856823Y681477D02*
X856823Y681477D01*
X863932Y681477D01*
X863727Y680444D01*
X863066Y678849D01*
X862107Y677413D01*
X860887Y676193D01*
X859451Y675234D01*
X857856Y674573D01*
X856823Y674368D01*
X856823Y681477D01*
G37*
%LPD*%
%LPC*%
G36*
X770468Y455923D02*
X770468Y455923D01*
X770673Y456956D01*
X771334Y458551D01*
X772293Y459987D01*
X773513Y461207D01*
X774949Y462166D01*
X776544Y462827D01*
X777577Y463032D01*
X777577Y455923D01*
X770468Y455923D01*
G37*
%LPD*%
%LPC*%
G36*
X780623Y681477D02*
X780623Y681477D01*
X787732Y681477D01*
X787527Y680444D01*
X786866Y678849D01*
X785907Y677413D01*
X784687Y676193D01*
X783251Y675234D01*
X781656Y674573D01*
X780623Y674368D01*
X780623Y681477D01*
G37*
%LPD*%
%LPC*%
G36*
X776544Y445973D02*
X776544Y445973D01*
X774949Y446634D01*
X773513Y447593D01*
X772293Y448813D01*
X771334Y450249D01*
X770673Y451844D01*
X770468Y452877D01*
X777577Y452877D01*
X777577Y445768D01*
X776544Y445973D01*
G37*
%LPD*%
%LPC*%
G36*
X852744Y445973D02*
X852744Y445973D01*
X851149Y446634D01*
X849713Y447593D01*
X848493Y448813D01*
X847534Y450249D01*
X846873Y451844D01*
X846668Y452877D01*
X853777Y452877D01*
X853777Y445768D01*
X852744Y445973D01*
G37*
%LPD*%
%LPC*%
G36*
X852744Y674573D02*
X852744Y674573D01*
X851149Y675234D01*
X849713Y676193D01*
X848493Y677413D01*
X847534Y678849D01*
X846873Y680444D01*
X846668Y681477D01*
X853777Y681477D01*
X853777Y674368D01*
X852744Y674573D01*
G37*
%LPD*%
%LPC*%
G36*
X852744Y420573D02*
X852744Y420573D01*
X851149Y421234D01*
X849713Y422193D01*
X848493Y423413D01*
X847534Y424849D01*
X846873Y426444D01*
X846668Y427477D01*
X853777Y427477D01*
X853777Y420368D01*
X852744Y420573D01*
G37*
%LPD*%
%LPC*%
G36*
X776544Y674573D02*
X776544Y674573D01*
X774949Y675234D01*
X773513Y676193D01*
X772293Y677413D01*
X771334Y678849D01*
X770673Y680444D01*
X770468Y681477D01*
X777577Y681477D01*
X777577Y674368D01*
X776544Y674573D01*
G37*
%LPD*%
%LPC*%
G36*
X1296923Y757923D02*
X1296923Y757923D01*
X1296923Y764397D01*
X1297775Y764228D01*
X1299256Y763614D01*
X1300589Y762723D01*
X1301723Y761589D01*
X1302614Y760256D01*
X1303228Y758775D01*
X1303397Y757923D01*
X1296923Y757923D01*
G37*
%LPD*%
%LPC*%
G36*
X344423Y344423D02*
X344423Y344423D01*
X344423Y350897D01*
X345275Y350728D01*
X346756Y350114D01*
X348089Y349223D01*
X349223Y348089D01*
X350114Y346756D01*
X350728Y345275D01*
X350897Y344423D01*
X344423Y344423D01*
G37*
%LPD*%
%LPC*%
G36*
X1296923Y754877D02*
X1296923Y754877D01*
X1303397Y754877D01*
X1303228Y754025D01*
X1302614Y752544D01*
X1301723Y751211D01*
X1300589Y750077D01*
X1299256Y749186D01*
X1297775Y748572D01*
X1296923Y748403D01*
X1296923Y754877D01*
G37*
%LPD*%
%LPC*%
G36*
X1287403Y757923D02*
X1287403Y757923D01*
X1287572Y758775D01*
X1288186Y760256D01*
X1289077Y761589D01*
X1290211Y762723D01*
X1291544Y763614D01*
X1293025Y764228D01*
X1293877Y764397D01*
X1293877Y757923D01*
X1287403Y757923D01*
G37*
%LPD*%
%LPC*%
G36*
X334903Y344423D02*
X334903Y344423D01*
X335072Y345275D01*
X335686Y346756D01*
X336577Y348089D01*
X337711Y349223D01*
X339044Y350114D01*
X340525Y350728D01*
X341377Y350897D01*
X341377Y344423D01*
X334903Y344423D01*
G37*
%LPD*%
%LPC*%
G36*
X344423Y341377D02*
X344423Y341377D01*
X350897Y341377D01*
X350728Y340525D01*
X350114Y339044D01*
X349223Y337711D01*
X348089Y336577D01*
X346756Y335686D01*
X345275Y335072D01*
X344423Y334903D01*
X344423Y341377D01*
G37*
%LPD*%
%LPC*%
G36*
X1293025Y748572D02*
X1293025Y748572D01*
X1291544Y749186D01*
X1290211Y750077D01*
X1289077Y751211D01*
X1288186Y752544D01*
X1287572Y754025D01*
X1287403Y754877D01*
X1293877Y754877D01*
X1293877Y748403D01*
X1293025Y748572D01*
G37*
%LPD*%
%LPC*%
G36*
X340525Y335072D02*
X340525Y335072D01*
X339044Y335686D01*
X337711Y336577D01*
X336577Y337711D01*
X335686Y339044D01*
X335072Y340525D01*
X334903Y341377D01*
X341377Y341377D01*
X341377Y334903D01*
X340525Y335072D01*
G37*
%LPD*%
%LPC*%
G36*
X1220699Y242799D02*
X1220699Y242799D01*
X1220699Y248205D01*
X1221261Y248093D01*
X1222546Y247561D01*
X1223703Y246788D01*
X1224688Y245803D01*
X1225461Y244646D01*
X1225993Y243361D01*
X1226105Y242799D01*
X1220699Y242799D01*
G37*
%LPD*%
%LPC*%
G36*
X1212295Y242799D02*
X1212295Y242799D01*
X1212407Y243361D01*
X1212939Y244646D01*
X1213712Y245803D01*
X1214697Y246788D01*
X1215854Y247561D01*
X1217139Y248093D01*
X1217701Y248205D01*
X1217701Y242799D01*
X1212295Y242799D01*
G37*
%LPD*%
%LPC*%
G36*
X1220699Y239801D02*
X1220699Y239801D01*
X1226105Y239801D01*
X1225993Y239239D01*
X1225461Y237954D01*
X1224688Y236797D01*
X1223703Y235812D01*
X1222546Y235039D01*
X1221261Y234507D01*
X1220699Y234395D01*
X1220699Y239801D01*
G37*
%LPD*%
%LPC*%
G36*
X1217139Y234507D02*
X1217139Y234507D01*
X1215854Y235039D01*
X1214697Y235812D01*
X1213712Y236797D01*
X1212939Y237954D01*
X1212407Y239239D01*
X1212295Y239801D01*
X1217701Y239801D01*
X1217701Y234395D01*
X1217139Y234507D01*
G37*
%LPD*%
%LPC*%
G36*
X1295399Y756399D02*
X1295399Y756399D01*
X1295399Y756401D01*
X1295401Y756401D01*
X1295401Y756399D01*
X1295399Y756399D01*
G37*
%LPD*%
%LPC*%
G36*
X342899Y342899D02*
X342899Y342899D01*
X342899Y342901D01*
X342901Y342901D01*
X342901Y342899D01*
X342899Y342899D01*
G37*
%LPD*%
%LPC*%
G36*
X855299Y454399D02*
X855299Y454399D01*
X855299Y454401D01*
X855301Y454401D01*
X855301Y454399D01*
X855299Y454399D01*
G37*
%LPD*%
%LPC*%
G36*
X191499Y959249D02*
X191499Y959249D01*
X191499Y959251D01*
X191501Y959251D01*
X191501Y959249D01*
X191499Y959249D01*
G37*
%LPD*%
%LPC*%
G36*
X855299Y428999D02*
X855299Y428999D01*
X855299Y429001D01*
X855301Y429001D01*
X855301Y428999D01*
X855299Y428999D01*
G37*
%LPD*%
%LPC*%
G36*
X779099Y682999D02*
X779099Y682999D01*
X779099Y683001D01*
X779101Y683001D01*
X779101Y682999D01*
X779099Y682999D01*
G37*
%LPD*%
%LPC*%
G36*
X316499Y959249D02*
X316499Y959249D01*
X316499Y959251D01*
X316501Y959251D01*
X316501Y959249D01*
X316499Y959249D01*
G37*
%LPD*%
%LPC*%
G36*
X855299Y682999D02*
X855299Y682999D01*
X855299Y683001D01*
X855301Y683001D01*
X855301Y682999D01*
X855299Y682999D01*
G37*
%LPD*%
%LPC*%
G36*
X779099Y454399D02*
X779099Y454399D01*
X779099Y454401D01*
X779101Y454401D01*
X779101Y454399D01*
X779099Y454399D01*
G37*
%LPD*%
D10*
X1295400Y756400D03*
X1295400Y691400D03*
D11*
X241700Y88900D03*
X266700Y88900D03*
X291700Y88900D03*
D12*
X316500Y1009250D03*
X316500Y959250D03*
X191500Y959250D03*
X191500Y1009250D03*
D13*
X38100Y1231900D03*
X1485900Y1231900D03*
X1485900Y38100D03*
X38100Y38100D03*
D14*
X1033100Y429000D03*
X1033100Y454400D03*
X1007700Y429000D03*
X1007700Y454400D03*
X982300Y429000D03*
X982300Y454400D03*
X956900Y429000D03*
X956900Y454400D03*
X931500Y429000D03*
X931500Y454400D03*
X906100Y429000D03*
X906100Y454400D03*
X880700Y429000D03*
X880700Y454400D03*
X855300Y429000D03*
X855300Y454400D03*
X829900Y429000D03*
X829900Y454400D03*
X804500Y429000D03*
X804500Y454400D03*
X779100Y429000D03*
X779100Y454400D03*
X753700Y429000D03*
X753700Y454400D03*
X728300Y429000D03*
X728300Y454400D03*
X702900Y429000D03*
X702900Y454400D03*
X677500Y429000D03*
X677500Y454400D03*
X652100Y429000D03*
X652100Y454400D03*
X626700Y429000D03*
X626700Y454400D03*
X601300Y429000D03*
X601300Y454400D03*
X1033100Y683000D03*
X1033100Y708400D03*
X1007700Y683000D03*
X1007700Y708400D03*
X982300Y683000D03*
X982300Y708400D03*
X956900Y683000D03*
X956900Y708400D03*
X931500Y683000D03*
X931500Y708400D03*
X906100Y683000D03*
X906100Y708400D03*
X880700Y683000D03*
X880700Y708400D03*
X855300Y683000D03*
X855300Y708400D03*
X829900Y683000D03*
X829900Y708400D03*
X804500Y683000D03*
X804500Y708400D03*
X779100Y683000D03*
X779100Y708400D03*
X753700Y683000D03*
X753700Y708400D03*
X728300Y683000D03*
X728300Y708400D03*
X702900Y683000D03*
X702900Y708400D03*
X677500Y683000D03*
X677500Y708400D03*
X652100Y683000D03*
X652100Y708400D03*
X626700Y683000D03*
X626700Y708400D03*
X601300Y683000D03*
X601300Y708400D03*
D10*
X342900Y825500D03*
X342900Y800100D03*
X342900Y774700D03*
X342900Y749300D03*
X342900Y723900D03*
X342900Y698500D03*
X342900Y673100D03*
X342900Y647700D03*
X342900Y622300D03*
X342900Y596900D03*
X342900Y571500D03*
X342900Y546100D03*
X342900Y520700D03*
X342900Y495300D03*
X342900Y469900D03*
X342900Y444500D03*
X342900Y419100D03*
X342900Y393700D03*
X342900Y368300D03*
X342900Y342900D03*
X368300Y342900D03*
X368300Y368300D03*
X368300Y393700D03*
X368300Y419100D03*
X368300Y444500D03*
X368300Y469900D03*
X368300Y495300D03*
X368300Y520700D03*
X368300Y546100D03*
X368300Y571500D03*
X368300Y596900D03*
X368300Y622300D03*
X368300Y647700D03*
X368300Y673100D03*
X368300Y698500D03*
X368300Y723900D03*
X368300Y749300D03*
X368300Y774700D03*
X368300Y800100D03*
X368300Y825500D03*
D15*
X1168400Y241300D03*
X1219200Y241300D03*
X1168400Y190500D03*
X1219200Y190500D03*
D16*
X1320800Y127000D03*
X1244600Y152400D03*
X1276350Y984250D03*
X1276350Y1092200D03*
X50800Y1130300D03*
X336550Y933450D03*
X1225550Y1054100D03*
M02*
