G04 EAGLE Gerber RS-274X export*
G75*
%MOMM*%
%FSLAX34Y34*%
%LPD*%
%INSoldermask Bottom*%
%IPPOS*%
%AMOC8*
5,1,8,0,0,1.08239X$1,22.5*%
G01*
%ADD10C,1.272400*%
%ADD11C,1.552400*%
%ADD12C,2.652400*%
%ADD13C,2.112400*%
%ADD14C,4.597400*%
%ADD15C,0.609600*%
%ADD16C,1.168400*%
%ADD17R,1.676400X1.676400*%
%ADD18P,1.814519X8X202.500000*%
%ADD19R,1.272400X1.272400*%
%ADD20C,3.352400*%
%ADD21R,1.057200X1.057200*%


D10*
X1295400Y756400D03*
X1295400Y691400D03*
D11*
X241700Y88900D03*
X266700Y88900D03*
X291700Y88900D03*
D12*
X216700Y158900D03*
X316700Y158900D03*
D13*
X316500Y1009250D03*
X316500Y959250D03*
X191500Y959250D03*
X191500Y1009250D03*
D14*
X38100Y1231900D03*
X1485900Y1231900D03*
X1485900Y38100D03*
X38100Y38100D03*
D15*
X1275080Y1155700D02*
X1275082Y1155887D01*
X1275089Y1156074D01*
X1275101Y1156261D01*
X1275117Y1156447D01*
X1275137Y1156633D01*
X1275162Y1156818D01*
X1275192Y1157003D01*
X1275226Y1157187D01*
X1275265Y1157370D01*
X1275308Y1157552D01*
X1275356Y1157732D01*
X1275408Y1157912D01*
X1275465Y1158090D01*
X1275525Y1158267D01*
X1275591Y1158442D01*
X1275660Y1158616D01*
X1275734Y1158788D01*
X1275812Y1158958D01*
X1275894Y1159126D01*
X1275980Y1159292D01*
X1276070Y1159456D01*
X1276164Y1159617D01*
X1276262Y1159777D01*
X1276364Y1159933D01*
X1276470Y1160088D01*
X1276580Y1160239D01*
X1276693Y1160388D01*
X1276810Y1160534D01*
X1276930Y1160677D01*
X1277054Y1160817D01*
X1277181Y1160954D01*
X1277312Y1161088D01*
X1277446Y1161219D01*
X1277583Y1161346D01*
X1277723Y1161470D01*
X1277866Y1161590D01*
X1278012Y1161707D01*
X1278161Y1161820D01*
X1278312Y1161930D01*
X1278467Y1162036D01*
X1278623Y1162138D01*
X1278783Y1162236D01*
X1278944Y1162330D01*
X1279108Y1162420D01*
X1279274Y1162506D01*
X1279442Y1162588D01*
X1279612Y1162666D01*
X1279784Y1162740D01*
X1279958Y1162809D01*
X1280133Y1162875D01*
X1280310Y1162935D01*
X1280488Y1162992D01*
X1280668Y1163044D01*
X1280848Y1163092D01*
X1281030Y1163135D01*
X1281213Y1163174D01*
X1281397Y1163208D01*
X1281582Y1163238D01*
X1281767Y1163263D01*
X1281953Y1163283D01*
X1282139Y1163299D01*
X1282326Y1163311D01*
X1282513Y1163318D01*
X1282700Y1163320D01*
X1282887Y1163318D01*
X1283074Y1163311D01*
X1283261Y1163299D01*
X1283447Y1163283D01*
X1283633Y1163263D01*
X1283818Y1163238D01*
X1284003Y1163208D01*
X1284187Y1163174D01*
X1284370Y1163135D01*
X1284552Y1163092D01*
X1284732Y1163044D01*
X1284912Y1162992D01*
X1285090Y1162935D01*
X1285267Y1162875D01*
X1285442Y1162809D01*
X1285616Y1162740D01*
X1285788Y1162666D01*
X1285958Y1162588D01*
X1286126Y1162506D01*
X1286292Y1162420D01*
X1286456Y1162330D01*
X1286617Y1162236D01*
X1286777Y1162138D01*
X1286933Y1162036D01*
X1287088Y1161930D01*
X1287239Y1161820D01*
X1287388Y1161707D01*
X1287534Y1161590D01*
X1287677Y1161470D01*
X1287817Y1161346D01*
X1287954Y1161219D01*
X1288088Y1161088D01*
X1288219Y1160954D01*
X1288346Y1160817D01*
X1288470Y1160677D01*
X1288590Y1160534D01*
X1288707Y1160388D01*
X1288820Y1160239D01*
X1288930Y1160088D01*
X1289036Y1159933D01*
X1289138Y1159777D01*
X1289236Y1159617D01*
X1289330Y1159456D01*
X1289420Y1159292D01*
X1289506Y1159126D01*
X1289588Y1158958D01*
X1289666Y1158788D01*
X1289740Y1158616D01*
X1289809Y1158442D01*
X1289875Y1158267D01*
X1289935Y1158090D01*
X1289992Y1157912D01*
X1290044Y1157732D01*
X1290092Y1157552D01*
X1290135Y1157370D01*
X1290174Y1157187D01*
X1290208Y1157003D01*
X1290238Y1156818D01*
X1290263Y1156633D01*
X1290283Y1156447D01*
X1290299Y1156261D01*
X1290311Y1156074D01*
X1290318Y1155887D01*
X1290320Y1155700D01*
X1290318Y1155513D01*
X1290311Y1155326D01*
X1290299Y1155139D01*
X1290283Y1154953D01*
X1290263Y1154767D01*
X1290238Y1154582D01*
X1290208Y1154397D01*
X1290174Y1154213D01*
X1290135Y1154030D01*
X1290092Y1153848D01*
X1290044Y1153668D01*
X1289992Y1153488D01*
X1289935Y1153310D01*
X1289875Y1153133D01*
X1289809Y1152958D01*
X1289740Y1152784D01*
X1289666Y1152612D01*
X1289588Y1152442D01*
X1289506Y1152274D01*
X1289420Y1152108D01*
X1289330Y1151944D01*
X1289236Y1151783D01*
X1289138Y1151623D01*
X1289036Y1151467D01*
X1288930Y1151312D01*
X1288820Y1151161D01*
X1288707Y1151012D01*
X1288590Y1150866D01*
X1288470Y1150723D01*
X1288346Y1150583D01*
X1288219Y1150446D01*
X1288088Y1150312D01*
X1287954Y1150181D01*
X1287817Y1150054D01*
X1287677Y1149930D01*
X1287534Y1149810D01*
X1287388Y1149693D01*
X1287239Y1149580D01*
X1287088Y1149470D01*
X1286933Y1149364D01*
X1286777Y1149262D01*
X1286617Y1149164D01*
X1286456Y1149070D01*
X1286292Y1148980D01*
X1286126Y1148894D01*
X1285958Y1148812D01*
X1285788Y1148734D01*
X1285616Y1148660D01*
X1285442Y1148591D01*
X1285267Y1148525D01*
X1285090Y1148465D01*
X1284912Y1148408D01*
X1284732Y1148356D01*
X1284552Y1148308D01*
X1284370Y1148265D01*
X1284187Y1148226D01*
X1284003Y1148192D01*
X1283818Y1148162D01*
X1283633Y1148137D01*
X1283447Y1148117D01*
X1283261Y1148101D01*
X1283074Y1148089D01*
X1282887Y1148082D01*
X1282700Y1148080D01*
X1282513Y1148082D01*
X1282326Y1148089D01*
X1282139Y1148101D01*
X1281953Y1148117D01*
X1281767Y1148137D01*
X1281582Y1148162D01*
X1281397Y1148192D01*
X1281213Y1148226D01*
X1281030Y1148265D01*
X1280848Y1148308D01*
X1280668Y1148356D01*
X1280488Y1148408D01*
X1280310Y1148465D01*
X1280133Y1148525D01*
X1279958Y1148591D01*
X1279784Y1148660D01*
X1279612Y1148734D01*
X1279442Y1148812D01*
X1279274Y1148894D01*
X1279108Y1148980D01*
X1278944Y1149070D01*
X1278783Y1149164D01*
X1278623Y1149262D01*
X1278467Y1149364D01*
X1278312Y1149470D01*
X1278161Y1149580D01*
X1278012Y1149693D01*
X1277866Y1149810D01*
X1277723Y1149930D01*
X1277583Y1150054D01*
X1277446Y1150181D01*
X1277312Y1150312D01*
X1277181Y1150446D01*
X1277054Y1150583D01*
X1276930Y1150723D01*
X1276810Y1150866D01*
X1276693Y1151012D01*
X1276580Y1151161D01*
X1276470Y1151312D01*
X1276364Y1151467D01*
X1276262Y1151623D01*
X1276164Y1151783D01*
X1276070Y1151944D01*
X1275980Y1152108D01*
X1275894Y1152274D01*
X1275812Y1152442D01*
X1275734Y1152612D01*
X1275660Y1152784D01*
X1275591Y1152958D01*
X1275525Y1153133D01*
X1275465Y1153310D01*
X1275408Y1153488D01*
X1275356Y1153668D01*
X1275308Y1153848D01*
X1275265Y1154030D01*
X1275226Y1154213D01*
X1275192Y1154397D01*
X1275162Y1154582D01*
X1275137Y1154767D01*
X1275117Y1154953D01*
X1275101Y1155139D01*
X1275089Y1155326D01*
X1275082Y1155513D01*
X1275080Y1155700D01*
D16*
X1282700Y1155700D03*
D15*
X1275080Y215900D02*
X1275082Y216087D01*
X1275089Y216274D01*
X1275101Y216461D01*
X1275117Y216647D01*
X1275137Y216833D01*
X1275162Y217018D01*
X1275192Y217203D01*
X1275226Y217387D01*
X1275265Y217570D01*
X1275308Y217752D01*
X1275356Y217932D01*
X1275408Y218112D01*
X1275465Y218290D01*
X1275525Y218467D01*
X1275591Y218642D01*
X1275660Y218816D01*
X1275734Y218988D01*
X1275812Y219158D01*
X1275894Y219326D01*
X1275980Y219492D01*
X1276070Y219656D01*
X1276164Y219817D01*
X1276262Y219977D01*
X1276364Y220133D01*
X1276470Y220288D01*
X1276580Y220439D01*
X1276693Y220588D01*
X1276810Y220734D01*
X1276930Y220877D01*
X1277054Y221017D01*
X1277181Y221154D01*
X1277312Y221288D01*
X1277446Y221419D01*
X1277583Y221546D01*
X1277723Y221670D01*
X1277866Y221790D01*
X1278012Y221907D01*
X1278161Y222020D01*
X1278312Y222130D01*
X1278467Y222236D01*
X1278623Y222338D01*
X1278783Y222436D01*
X1278944Y222530D01*
X1279108Y222620D01*
X1279274Y222706D01*
X1279442Y222788D01*
X1279612Y222866D01*
X1279784Y222940D01*
X1279958Y223009D01*
X1280133Y223075D01*
X1280310Y223135D01*
X1280488Y223192D01*
X1280668Y223244D01*
X1280848Y223292D01*
X1281030Y223335D01*
X1281213Y223374D01*
X1281397Y223408D01*
X1281582Y223438D01*
X1281767Y223463D01*
X1281953Y223483D01*
X1282139Y223499D01*
X1282326Y223511D01*
X1282513Y223518D01*
X1282700Y223520D01*
X1282887Y223518D01*
X1283074Y223511D01*
X1283261Y223499D01*
X1283447Y223483D01*
X1283633Y223463D01*
X1283818Y223438D01*
X1284003Y223408D01*
X1284187Y223374D01*
X1284370Y223335D01*
X1284552Y223292D01*
X1284732Y223244D01*
X1284912Y223192D01*
X1285090Y223135D01*
X1285267Y223075D01*
X1285442Y223009D01*
X1285616Y222940D01*
X1285788Y222866D01*
X1285958Y222788D01*
X1286126Y222706D01*
X1286292Y222620D01*
X1286456Y222530D01*
X1286617Y222436D01*
X1286777Y222338D01*
X1286933Y222236D01*
X1287088Y222130D01*
X1287239Y222020D01*
X1287388Y221907D01*
X1287534Y221790D01*
X1287677Y221670D01*
X1287817Y221546D01*
X1287954Y221419D01*
X1288088Y221288D01*
X1288219Y221154D01*
X1288346Y221017D01*
X1288470Y220877D01*
X1288590Y220734D01*
X1288707Y220588D01*
X1288820Y220439D01*
X1288930Y220288D01*
X1289036Y220133D01*
X1289138Y219977D01*
X1289236Y219817D01*
X1289330Y219656D01*
X1289420Y219492D01*
X1289506Y219326D01*
X1289588Y219158D01*
X1289666Y218988D01*
X1289740Y218816D01*
X1289809Y218642D01*
X1289875Y218467D01*
X1289935Y218290D01*
X1289992Y218112D01*
X1290044Y217932D01*
X1290092Y217752D01*
X1290135Y217570D01*
X1290174Y217387D01*
X1290208Y217203D01*
X1290238Y217018D01*
X1290263Y216833D01*
X1290283Y216647D01*
X1290299Y216461D01*
X1290311Y216274D01*
X1290318Y216087D01*
X1290320Y215900D01*
X1290318Y215713D01*
X1290311Y215526D01*
X1290299Y215339D01*
X1290283Y215153D01*
X1290263Y214967D01*
X1290238Y214782D01*
X1290208Y214597D01*
X1290174Y214413D01*
X1290135Y214230D01*
X1290092Y214048D01*
X1290044Y213868D01*
X1289992Y213688D01*
X1289935Y213510D01*
X1289875Y213333D01*
X1289809Y213158D01*
X1289740Y212984D01*
X1289666Y212812D01*
X1289588Y212642D01*
X1289506Y212474D01*
X1289420Y212308D01*
X1289330Y212144D01*
X1289236Y211983D01*
X1289138Y211823D01*
X1289036Y211667D01*
X1288930Y211512D01*
X1288820Y211361D01*
X1288707Y211212D01*
X1288590Y211066D01*
X1288470Y210923D01*
X1288346Y210783D01*
X1288219Y210646D01*
X1288088Y210512D01*
X1287954Y210381D01*
X1287817Y210254D01*
X1287677Y210130D01*
X1287534Y210010D01*
X1287388Y209893D01*
X1287239Y209780D01*
X1287088Y209670D01*
X1286933Y209564D01*
X1286777Y209462D01*
X1286617Y209364D01*
X1286456Y209270D01*
X1286292Y209180D01*
X1286126Y209094D01*
X1285958Y209012D01*
X1285788Y208934D01*
X1285616Y208860D01*
X1285442Y208791D01*
X1285267Y208725D01*
X1285090Y208665D01*
X1284912Y208608D01*
X1284732Y208556D01*
X1284552Y208508D01*
X1284370Y208465D01*
X1284187Y208426D01*
X1284003Y208392D01*
X1283818Y208362D01*
X1283633Y208337D01*
X1283447Y208317D01*
X1283261Y208301D01*
X1283074Y208289D01*
X1282887Y208282D01*
X1282700Y208280D01*
X1282513Y208282D01*
X1282326Y208289D01*
X1282139Y208301D01*
X1281953Y208317D01*
X1281767Y208337D01*
X1281582Y208362D01*
X1281397Y208392D01*
X1281213Y208426D01*
X1281030Y208465D01*
X1280848Y208508D01*
X1280668Y208556D01*
X1280488Y208608D01*
X1280310Y208665D01*
X1280133Y208725D01*
X1279958Y208791D01*
X1279784Y208860D01*
X1279612Y208934D01*
X1279442Y209012D01*
X1279274Y209094D01*
X1279108Y209180D01*
X1278944Y209270D01*
X1278783Y209364D01*
X1278623Y209462D01*
X1278467Y209564D01*
X1278312Y209670D01*
X1278161Y209780D01*
X1278012Y209893D01*
X1277866Y210010D01*
X1277723Y210130D01*
X1277583Y210254D01*
X1277446Y210381D01*
X1277312Y210512D01*
X1277181Y210646D01*
X1277054Y210783D01*
X1276930Y210923D01*
X1276810Y211066D01*
X1276693Y211212D01*
X1276580Y211361D01*
X1276470Y211512D01*
X1276364Y211667D01*
X1276262Y211823D01*
X1276164Y211983D01*
X1276070Y212144D01*
X1275980Y212308D01*
X1275894Y212474D01*
X1275812Y212642D01*
X1275734Y212812D01*
X1275660Y212984D01*
X1275591Y213158D01*
X1275525Y213333D01*
X1275465Y213510D01*
X1275408Y213688D01*
X1275356Y213868D01*
X1275308Y214048D01*
X1275265Y214230D01*
X1275226Y214413D01*
X1275192Y214597D01*
X1275162Y214782D01*
X1275137Y214967D01*
X1275117Y215153D01*
X1275101Y215339D01*
X1275089Y215526D01*
X1275082Y215713D01*
X1275080Y215900D01*
D16*
X1282700Y215900D03*
D15*
X347980Y215900D02*
X347982Y216087D01*
X347989Y216274D01*
X348001Y216461D01*
X348017Y216647D01*
X348037Y216833D01*
X348062Y217018D01*
X348092Y217203D01*
X348126Y217387D01*
X348165Y217570D01*
X348208Y217752D01*
X348256Y217932D01*
X348308Y218112D01*
X348365Y218290D01*
X348425Y218467D01*
X348491Y218642D01*
X348560Y218816D01*
X348634Y218988D01*
X348712Y219158D01*
X348794Y219326D01*
X348880Y219492D01*
X348970Y219656D01*
X349064Y219817D01*
X349162Y219977D01*
X349264Y220133D01*
X349370Y220288D01*
X349480Y220439D01*
X349593Y220588D01*
X349710Y220734D01*
X349830Y220877D01*
X349954Y221017D01*
X350081Y221154D01*
X350212Y221288D01*
X350346Y221419D01*
X350483Y221546D01*
X350623Y221670D01*
X350766Y221790D01*
X350912Y221907D01*
X351061Y222020D01*
X351212Y222130D01*
X351367Y222236D01*
X351523Y222338D01*
X351683Y222436D01*
X351844Y222530D01*
X352008Y222620D01*
X352174Y222706D01*
X352342Y222788D01*
X352512Y222866D01*
X352684Y222940D01*
X352858Y223009D01*
X353033Y223075D01*
X353210Y223135D01*
X353388Y223192D01*
X353568Y223244D01*
X353748Y223292D01*
X353930Y223335D01*
X354113Y223374D01*
X354297Y223408D01*
X354482Y223438D01*
X354667Y223463D01*
X354853Y223483D01*
X355039Y223499D01*
X355226Y223511D01*
X355413Y223518D01*
X355600Y223520D01*
X355787Y223518D01*
X355974Y223511D01*
X356161Y223499D01*
X356347Y223483D01*
X356533Y223463D01*
X356718Y223438D01*
X356903Y223408D01*
X357087Y223374D01*
X357270Y223335D01*
X357452Y223292D01*
X357632Y223244D01*
X357812Y223192D01*
X357990Y223135D01*
X358167Y223075D01*
X358342Y223009D01*
X358516Y222940D01*
X358688Y222866D01*
X358858Y222788D01*
X359026Y222706D01*
X359192Y222620D01*
X359356Y222530D01*
X359517Y222436D01*
X359677Y222338D01*
X359833Y222236D01*
X359988Y222130D01*
X360139Y222020D01*
X360288Y221907D01*
X360434Y221790D01*
X360577Y221670D01*
X360717Y221546D01*
X360854Y221419D01*
X360988Y221288D01*
X361119Y221154D01*
X361246Y221017D01*
X361370Y220877D01*
X361490Y220734D01*
X361607Y220588D01*
X361720Y220439D01*
X361830Y220288D01*
X361936Y220133D01*
X362038Y219977D01*
X362136Y219817D01*
X362230Y219656D01*
X362320Y219492D01*
X362406Y219326D01*
X362488Y219158D01*
X362566Y218988D01*
X362640Y218816D01*
X362709Y218642D01*
X362775Y218467D01*
X362835Y218290D01*
X362892Y218112D01*
X362944Y217932D01*
X362992Y217752D01*
X363035Y217570D01*
X363074Y217387D01*
X363108Y217203D01*
X363138Y217018D01*
X363163Y216833D01*
X363183Y216647D01*
X363199Y216461D01*
X363211Y216274D01*
X363218Y216087D01*
X363220Y215900D01*
X363218Y215713D01*
X363211Y215526D01*
X363199Y215339D01*
X363183Y215153D01*
X363163Y214967D01*
X363138Y214782D01*
X363108Y214597D01*
X363074Y214413D01*
X363035Y214230D01*
X362992Y214048D01*
X362944Y213868D01*
X362892Y213688D01*
X362835Y213510D01*
X362775Y213333D01*
X362709Y213158D01*
X362640Y212984D01*
X362566Y212812D01*
X362488Y212642D01*
X362406Y212474D01*
X362320Y212308D01*
X362230Y212144D01*
X362136Y211983D01*
X362038Y211823D01*
X361936Y211667D01*
X361830Y211512D01*
X361720Y211361D01*
X361607Y211212D01*
X361490Y211066D01*
X361370Y210923D01*
X361246Y210783D01*
X361119Y210646D01*
X360988Y210512D01*
X360854Y210381D01*
X360717Y210254D01*
X360577Y210130D01*
X360434Y210010D01*
X360288Y209893D01*
X360139Y209780D01*
X359988Y209670D01*
X359833Y209564D01*
X359677Y209462D01*
X359517Y209364D01*
X359356Y209270D01*
X359192Y209180D01*
X359026Y209094D01*
X358858Y209012D01*
X358688Y208934D01*
X358516Y208860D01*
X358342Y208791D01*
X358167Y208725D01*
X357990Y208665D01*
X357812Y208608D01*
X357632Y208556D01*
X357452Y208508D01*
X357270Y208465D01*
X357087Y208426D01*
X356903Y208392D01*
X356718Y208362D01*
X356533Y208337D01*
X356347Y208317D01*
X356161Y208301D01*
X355974Y208289D01*
X355787Y208282D01*
X355600Y208280D01*
X355413Y208282D01*
X355226Y208289D01*
X355039Y208301D01*
X354853Y208317D01*
X354667Y208337D01*
X354482Y208362D01*
X354297Y208392D01*
X354113Y208426D01*
X353930Y208465D01*
X353748Y208508D01*
X353568Y208556D01*
X353388Y208608D01*
X353210Y208665D01*
X353033Y208725D01*
X352858Y208791D01*
X352684Y208860D01*
X352512Y208934D01*
X352342Y209012D01*
X352174Y209094D01*
X352008Y209180D01*
X351844Y209270D01*
X351683Y209364D01*
X351523Y209462D01*
X351367Y209564D01*
X351212Y209670D01*
X351061Y209780D01*
X350912Y209893D01*
X350766Y210010D01*
X350623Y210130D01*
X350483Y210254D01*
X350346Y210381D01*
X350212Y210512D01*
X350081Y210646D01*
X349954Y210783D01*
X349830Y210923D01*
X349710Y211066D01*
X349593Y211212D01*
X349480Y211361D01*
X349370Y211512D01*
X349264Y211667D01*
X349162Y211823D01*
X349064Y211983D01*
X348970Y212144D01*
X348880Y212308D01*
X348794Y212474D01*
X348712Y212642D01*
X348634Y212812D01*
X348560Y212984D01*
X348491Y213158D01*
X348425Y213333D01*
X348365Y213510D01*
X348308Y213688D01*
X348256Y213868D01*
X348208Y214048D01*
X348165Y214230D01*
X348126Y214413D01*
X348092Y214597D01*
X348062Y214782D01*
X348037Y214967D01*
X348017Y215153D01*
X348001Y215339D01*
X347989Y215526D01*
X347982Y215713D01*
X347980Y215900D01*
D16*
X355600Y215900D03*
D17*
X1033100Y429000D03*
D18*
X1033100Y454400D03*
X1007700Y429000D03*
X1007700Y454400D03*
X982300Y429000D03*
X982300Y454400D03*
X956900Y429000D03*
X956900Y454400D03*
X931500Y429000D03*
X931500Y454400D03*
X906100Y429000D03*
X906100Y454400D03*
X880700Y429000D03*
X880700Y454400D03*
X855300Y429000D03*
X855300Y454400D03*
X829900Y429000D03*
X829900Y454400D03*
X804500Y429000D03*
X804500Y454400D03*
X779100Y429000D03*
X779100Y454400D03*
X753700Y429000D03*
X753700Y454400D03*
X728300Y429000D03*
X728300Y454400D03*
X702900Y429000D03*
X702900Y454400D03*
X677500Y429000D03*
X677500Y454400D03*
X652100Y429000D03*
X652100Y454400D03*
X626700Y429000D03*
X626700Y454400D03*
X601300Y429000D03*
X601300Y454400D03*
D17*
X1033100Y683000D03*
D18*
X1033100Y708400D03*
X1007700Y683000D03*
X1007700Y708400D03*
X982300Y683000D03*
X982300Y708400D03*
X956900Y683000D03*
X956900Y708400D03*
X931500Y683000D03*
X931500Y708400D03*
X906100Y683000D03*
X906100Y708400D03*
X880700Y683000D03*
X880700Y708400D03*
X855300Y683000D03*
X855300Y708400D03*
X829900Y683000D03*
X829900Y708400D03*
X804500Y683000D03*
X804500Y708400D03*
X779100Y683000D03*
X779100Y708400D03*
X753700Y683000D03*
X753700Y708400D03*
X728300Y683000D03*
X728300Y708400D03*
X702900Y683000D03*
X702900Y708400D03*
X677500Y683000D03*
X677500Y708400D03*
X652100Y683000D03*
X652100Y708400D03*
X626700Y683000D03*
X626700Y708400D03*
X601300Y683000D03*
X601300Y708400D03*
D10*
X342900Y825500D03*
X342900Y800100D03*
X342900Y774700D03*
X342900Y749300D03*
X342900Y723900D03*
X342900Y698500D03*
X342900Y673100D03*
X342900Y647700D03*
X342900Y622300D03*
X342900Y596900D03*
X342900Y571500D03*
X342900Y546100D03*
X342900Y520700D03*
X342900Y495300D03*
X342900Y469900D03*
X342900Y444500D03*
X342900Y419100D03*
X342900Y393700D03*
X342900Y368300D03*
D19*
X342900Y342900D03*
D10*
X368300Y342900D03*
X368300Y368300D03*
X368300Y393700D03*
X368300Y419100D03*
X368300Y444500D03*
X368300Y469900D03*
X368300Y495300D03*
X368300Y520700D03*
X368300Y546100D03*
X368300Y571500D03*
X368300Y596900D03*
X368300Y622300D03*
X368300Y647700D03*
X368300Y673100D03*
X368300Y698500D03*
X368300Y723900D03*
X368300Y749300D03*
X368300Y774700D03*
X368300Y800100D03*
X368300Y825500D03*
D20*
X382900Y880500D03*
X382900Y290500D03*
X1237900Y880500D03*
X1237900Y290500D03*
D21*
X1168400Y241300D03*
X1219200Y241300D03*
X1168400Y190500D03*
X1219200Y190500D03*
M02*
